<svg xmlns="http://www.w3.org/2000/svg" width="850" height="600" style="font-family:Lato,&quot;Helvetica Neue&quot;,Helvetica,Arial,&quot;Liberation Sans&quot;,sans-serif;font-size:18px;background-color:#fff;text-rendering:geometricPrecision;-webkit-font-smoothing:antialiased" version="1.1" viewBox="0 0 850 600"><defs><style>@import url(https://ourworldindata.org/fonts.css);</style></defs><defs><pattern id="noDataPattern" width="4" height="4" patternTransform="rotate(-45 2 2)" patternUnits="userSpaceOnUse"><path stroke="#ccc" stroke-width=".7" d="M-1 2h6"/></pattern></defs><path fill="#fff" d="M0 0h850v600H0z" class="background-fill"/><g id="header" class="HeaderView"><g id="logo" transform="translate(769 16)"><svg xmlns="http://www.w3.org/2000/svg" width="65" height="36" fill="none" className="owidLogo" viewBox="0 0 65 36"><path fill="#002147" d="M0 0h64.8v36H0z"/><path fill="#CE261E" d="M0 33.3h64.8V36H0z"/><path fill="#fff" d="M13.8 10.57c0 .64-.11 1.23-.32 1.77a4.2 4.2 0 0 1-.9 1.4 4.08 4.08 0 0 1-1.38.94c-.54.22-1.14.33-1.8.33-.65 0-1.25-.11-1.8-.33a4.15 4.15 0 0 1-1.39-.93 4.2 4.2 0 0 1-.9-1.4A4.83 4.83 0 0 1 5 10.56c0-.63.1-1.22.32-1.76a4.18 4.18 0 0 1 .9-1.4 4.08 4.08 0 0 1 1.38-.93 4.68 4.68 0 0 1 1.8-.34c.66 0 1.26.11 1.8.34a4.08 4.08 0 0 1 2.28 2.33c.21.54.32 1.13.32 1.76Zm-1.66 0c0-.47-.06-.9-.2-1.27a2.67 2.67 0 0 0-.53-.97 2.33 2.33 0 0 0-.87-.6A2.94 2.94 0 0 0 9.4 7.5c-.42 0-.8.07-1.14.21-.34.14-.63.35-.87.61a2.74 2.74 0 0 0-.55.97 3.96 3.96 0 0 0-.19 1.27c0 .48.06.9.2 1.29a2.42 2.42 0 0 0 1.42 1.56c.33.14.71.2 1.13.2.43 0 .8-.06 1.14-.2a2.37 2.37 0 0 0 1.4-1.56 4.01 4.01 0 0 0 .2-1.29Zm3.96-1.81v3.9c0 .39.09.68.26.89.18.2.44.3.79.3.25 0 .5-.06.72-.17a2.58 2.58 0 0 0 .63-.47V8.76H20v6.15h-.91c-.2 0-.32-.09-.38-.27l-.1-.49a4.65 4.65 0 0 1-.4.35 2.58 2.58 0 0 1-.43.27 2.35 2.35 0 0 1-.5.17 2.35 2.35 0 0 1-.57.07c-.34 0-.64-.06-.9-.17a1.82 1.82 0 0 1-.64-.49 2.16 2.16 0 0 1-.4-.73 3.23 3.23 0 0 1-.14-.95V8.76h1.48Zm5.23 6.15V8.76h.87c.15 0 .26.02.32.08s.1.15.12.29l.09.74c.22-.38.47-.68.77-.9.3-.22.63-.33 1-.33.3 0 .55.07.75.21l-.19 1.11c-.01.07-.04.13-.08.16a.28.28 0 0 1-.16.04 1.01 1.01 0 0 1-.25-.04 1.65 1.65 0 0 0-.41-.04c-.3 0-.57.08-.8.25-.21.17-.4.42-.55.75v3.83h-1.48Zm6.02-8.67h1.35a.57.57 0 0 1 .35.1c.1.06.16.15.2.26l1.47 5.2a10.12 10.12 0 0 1 .19.9 5.97 5.97 0 0 1 .22-.9l1.7-5.2a.57.57 0 0 1 .2-.25.54.54 0 0 1 .34-.11h.48a.57.57 0 0 1 .34.1.5.5 0 0 1 .2.26l1.69 5.2c.08.25.16.53.22.85a31.71 31.71 0 0 1 .19-.86l1.47-5.19c.03-.1.1-.18.19-.25a.56.56 0 0 1 .34-.11h1.27l-2.7 8.67h-1.45L33.7 9l-.08-.25a9.5 9.5 0 0 1-.07-.28 4.04 4.04 0 0 1-.15.53L31.5 14.9h-1.46l-2.7-8.67Zm15.42 2.42c.46 0 .88.07 1.25.22s.7.36.96.63.47.6.61 1 .22.83.22 1.31c0 .5-.08.93-.22 1.32a2.85 2.85 0 0 1-.61 1 2.65 2.65 0 0 1-.96.64 3.35 3.35 0 0 1-1.25.22 3.4 3.4 0 0 1-1.25-.22 2.71 2.71 0 0 1-.97-.63 2.92 2.92 0 0 1-.62-1 3.8 3.8 0 0 1-.21-1.33c0-.48.07-.92.21-1.31a2.75 2.75 0 0 1 1.58-1.63 3.4 3.4 0 0 1 1.26-.22Zm0 5.2c.51 0 .9-.17 1.13-.51.25-.35.38-.85.38-1.52s-.13-1.17-.38-1.51c-.24-.35-.62-.53-1.13-.53-.52 0-.9.18-1.15.53-.25.35-.37.85-.37 1.51s.12 1.17.37 1.52c.25.34.63.51 1.15.51Zm3.95 1.05V8.76h.87c.15 0 .26.02.32.08s.1.15.12.29l.1.74c.21-.38.47-.68.76-.9.3-.22.63-.33 1-.33.3 0 .56.07.76.21l-.2 1.11c0 .07-.03.13-.07.16a.28.28 0 0 1-.17.04 1.01 1.01 0 0 1-.24-.04 1.65 1.65 0 0 0-.42-.04c-.3 0-.57.08-.79.25-.22.17-.4.42-.56.75v3.83h-1.48ZM52.96 6v8.91h-1.48V6h1.48Zm5.77 8.91c-.19 0-.32-.09-.38-.27l-.12-.6a3.68 3.68 0 0 1-.4.4 2.5 2.5 0 0 1-.98.5 2.37 2.37 0 0 1-.6.06c-.33 0-.64-.07-.92-.2a2.1 2.1 0 0 1-.73-.61 3.03 3.03 0 0 1-.46-1 5.07 5.07 0 0 1-.17-1.34c0-.45.07-.88.19-1.27s.3-.73.53-1.02c.24-.29.51-.51.84-.67a2.38 2.38 0 0 1 1.09-.25 2.1 2.1 0 0 1 1.54.6V6h1.48v8.91h-.9Zm-1.97-1.08c.3 0 .57-.07.78-.2.22-.12.42-.3.62-.54v-2.76a1.45 1.45 0 0 0-.56-.43 1.6 1.6 0 0 0-.63-.13c-.23 0-.43.04-.61.13a1.21 1.21 0 0 0-.47.38c-.12.17-.22.39-.28.65a4.3 4.3 0 0 0-.02 1.84c.06.25.14.45.25.61.1.16.24.27.4.34.15.07.33.1.52.1Zm-40.43 6.93v6.15h-1.48v-6.15h1.48Zm.22-1.8a.84.84 0 0 1-.07.36.96.96 0 0 1-.21.3 1 1 0 0 1-.3.2.96.96 0 0 1-.38.07.95.95 0 0 1-.36-.07 1.02 1.02 0 0 1-.5-.5.96.96 0 0 1 0-.73 1 1 0 0 1 .2-.3.93.93 0 0 1 .3-.2.9.9 0 0 1 .73 0 .91.91 0 0 1 .3.2.94.94 0 0 1 .3.67Zm1.22 7.95v-6.15h.9c.2 0 .32.09.38.27l.1.48a2.93 2.93 0 0 1 .84-.61 2.3 2.3 0 0 1 1.07-.24c.34 0 .63.06.9.18.25.1.47.27.64.48.18.2.3.45.4.73.09.29.13.6.13.95v3.91h-1.48V23c0-.38-.08-.67-.26-.87-.17-.21-.43-.32-.78-.32-.26 0-.5.06-.72.18a2.58 2.58 0 0 0-.64.47v4.45h-1.48Zm16.45-4.34c0 .64-.1 1.22-.32 1.76-.21.53-.5.99-.9 1.37a4 4 0 0 1-1.38.9 4.87 4.87 0 0 1-1.8.31h-3.3v-8.67h3.3a4.79 4.79 0 0 1 1.8.32 4 4 0 0 1 1.39.9c.38.37.68.83.9 1.36.2.53.31 1.12.31 1.75Zm-1.65 0c0-.47-.06-.9-.2-1.27a2.68 2.68 0 0 0-.54-.96 2.33 2.33 0 0 0-.86-.6 2.94 2.94 0 0 0-1.14-.22h-1.69v6.1h1.69c.42 0 .8-.06 1.14-.2.34-.14.63-.34.86-.6a2.75 2.75 0 0 0 .55-.96 4.01 4.01 0 0 0 .19-1.29Zm7.41 4.34h-.67a.75.75 0 0 1-.33-.06c-.07-.04-.13-.13-.17-.25l-.14-.44c-.15.14-.3.26-.46.37a2.8 2.8 0 0 1-.46.26c-.16.08-.33.13-.51.17a3.07 3.07 0 0 1-1.32-.05 1.62 1.62 0 0 1-.57-.32 1.45 1.45 0 0 1-.37-.52 1.85 1.85 0 0 1-.13-.73c0-.23.06-.46.18-.68.12-.23.33-.44.61-.62.29-.18.67-.33 1.14-.45a8.01 8.01 0 0 1 1.75-.2v-.36c0-.42-.08-.72-.26-.92-.17-.2-.42-.3-.76-.3a1.84 1.84 0 0 0-1.01.28l-.33.19a.66.66 0 0 1-.33.08.43.43 0 0 1-.26-.08.61.61 0 0 1-.17-.2l-.27-.46c.7-.65 1.56-.98 2.56-.98.36 0 .68.06.96.18a1.99 1.99 0 0 1 1.16 1.25c.1.29.16.6.16.96v3.88ZM37.1 26c.15 0 .3-.01.42-.04a1.81 1.81 0 0 0 .69-.33c.1-.09.22-.19.32-.3v-1.04c-.43.02-.79.06-1.08.12a2.8 2.8 0 0 0-.7.2.92.92 0 0 0-.37.3.66.66 0 0 0-.11.36c0 .26.07.45.22.56.16.11.36.17.61.17ZM43.22 27c-.53 0-.94-.15-1.23-.45-.29-.3-.43-.72-.43-1.25v-3.44h-.63a.31.31 0 0 1-.2-.08c-.06-.05-.09-.13-.09-.23v-.6l.99-.15.31-1.68a.3.3 0 0 1 .11-.2.36.36 0 0 1 .22-.06h.77v1.94h1.62v1.06h-1.62v3.33c0 .2.05.35.14.45a.49.49 0 0 0 .39.17.73.73 0 0 0 .39-.1l.12-.07a.2.2 0 0 1 .11-.04.16.16 0 0 1 .11.04c.03.02.06.05.09.1l.44.71c-.21.18-.46.32-.74.41a2.77 2.77 0 0 1-.87.14Zm7.2-.1h-.66a.75.75 0 0 1-.33-.06c-.08-.04-.14-.13-.18-.25l-.13-.44c-.16.14-.31.26-.47.37a2.8 2.8 0 0 1-.46.26c-.16.08-.33.13-.5.17a3.07 3.07 0 0 1-1.33-.05 1.62 1.62 0 0 1-.57-.32 1.45 1.45 0 0 1-.36-.52 1.85 1.85 0 0 1-.14-.73c0-.23.06-.46.18-.68.13-.23.33-.44.62-.62.28-.18.66-.33 1.13-.45a8.01 8.01 0 0 1 1.76-.2v-.36c0-.42-.1-.72-.27-.92-.17-.2-.42-.3-.75-.3a1.84 1.84 0 0 0-1.02.28l-.33.19a.66.66 0 0 1-.33.08.43.43 0 0 1-.25-.08.61.61 0 0 1-.18-.2l-.27-.46c.7-.65 1.56-.98 2.56-.98.36 0 .68.06.96.18a1.99 1.99 0 0 1 1.17 1.25c.1.29.15.6.15.96v3.88ZM47.54 26c.16 0 .3-.01.42-.04a1.88 1.88 0 0 0 .69-.33l.33-.3v-1.04c-.44.02-.8.06-1.09.12a2.8 2.8 0 0 0-.7.2.92.92 0 0 0-.37.3.66.66 0 0 0-.11.36c0 .26.08.45.23.56.15.11.36.17.6.17Z"/></svg></g><a id="title" href="https://ourworldindata.org/grapher/annual-co-emissions-by-region" rel="noopener" style="font-family:&quot;Playfair Display&quot;,Georgia,&quot;Times New Roman&quot;,&quot;Liberation Serif&quot;,serif" target="_blank"><text x="16" y="40" fill="#5b5b5b" font-size="24.75" font-weight="600"><tspan x="16" y="40.01">Annual CO₂ emissions by world region</tspan></text></a><g id="subtitle" class="markdown-text-wrap"><text x="16" y="63.9" fill="#5b5b5b" style="font-size:14.625px;line-height:1.2"><tspan x="16" y="63.9">Emissions from <tspan class="dod-span" data-id="fossilemissions">fossil fuels and industry</tspan> are included, but not land-use change emissions. International aviation</tspan><tspan x="16" y="81.4">and shipping are included as separate entities, as they are not included in any country&apos;s emissions.</tspan></text></g></g><g id="chart-area" style="pointer-events:none"><g id="stacked-area-chart" class="StackedArea"><defs><clipPath id="boundsClip-391"><path d="M82.02 100.8h818v902h-818z"/></clipPath></defs><path fill="none" d="M16 100.8h818v451H16z"/><g id="dual-axis" class="DualAxisView"><g id="horizontal-axis" class="HorizontalAxis"><g id="tick__1750"><path stroke="#999" stroke-width="1" d="M82 530.8v5.5"/><text x="82.02" y="549.8" fill="#5b5b5b" font-size="13.5" text-anchor="start">1750</text></g><g id="tick__2022"><path stroke="#999" stroke-width="1" d="M697.5 530.8v5.5"/><text x="697.48" y="549.8" fill="#5b5b5b" font-size="13.5" text-anchor="end">2022</text></g><g id="tick__1800"><path stroke="#999" stroke-width="1" d="M195.2 530.8v5.5"/><text x="195.2" y="549.8" fill="#5b5b5b" font-size="13.5" text-anchor="middle">1800</text></g><g id="tick__1850"><path stroke="#999" stroke-width="1" d="M308.3 530.8v5.5"/><text x="308.3" y="549.8" fill="#5b5b5b" font-size="13.5" text-anchor="middle">1850</text></g><g id="tick__1900"><path stroke="#999" stroke-width="1" d="M421.4 530.8v5.5"/><text x="421.4" y="549.8" fill="#5b5b5b" font-size="13.5" text-anchor="middle">1900</text></g><g id="tick__1950"><path stroke="#999" stroke-width="1" d="M534.6 530.8v5.5"/><text x="534.6" y="549.8" fill="#5b5b5b" font-size="13.5" text-anchor="middle">1950</text></g></g><g id="vertical-axis" class="VerticalAxis"><g id="tick-labels"><text id="tick-label__0-t" x="77.02" y="531.3" fill="#5b5b5b" dy=".32em" font-size="13.5" text-anchor="end">0 t</text><text id="tick-label__5-billion-t" x="77.02" y="474.2" fill="#5b5b5b" dy=".32em" font-size="13.5" text-anchor="end">5 billion t</text><text id="tick-label__10-billion-t" x="77.02" y="417" fill="#5b5b5b" dy=".32em" font-size="13.5" text-anchor="end">10 billion t</text><text id="tick-label__15-billion-t" x="77.02" y="359.9" fill="#5b5b5b" dy=".32em" font-size="13.5" text-anchor="end">15 billion t</text><text id="tick-label__20-billion-t" x="77.02" y="302.8" fill="#5b5b5b" dy=".32em" font-size="13.5" text-anchor="end">20 billion t</text><text id="tick-label__25-billion-t" x="77.02" y="245.6" fill="#5b5b5b" dy=".32em" font-size="13.5" text-anchor="end">25 billion t</text><text id="tick-label__30-billion-t" x="77.02" y="188.5" fill="#5b5b5b" dy=".32em" font-size="13.5" text-anchor="end">30 billion t</text><text id="tick-label__35-billion-t" x="77.02" y="131.4" fill="#5b5b5b" dy=".32em" font-size="13.5" text-anchor="end">35 billion t</text></g></g><g id="horizontal-grid-lines" class="AxisGridLines horizontalLines"><path id="grid-line__0" stroke="#999" stroke-width="1" d="M82.02 531.3h615.46"/><path id="grid-line__5000000000" stroke="#ddd" stroke-dasharray="3,2" stroke-width="1" d="M82.02 474.2h615.46"/><path id="grid-line__10000000000" stroke="#ddd" stroke-dasharray="3,2" stroke-width="1" d="M82.02 417h615.46"/><path id="grid-line__15000000000" stroke="#ddd" stroke-dasharray="3,2" stroke-width="1" d="M82.02 359.9h615.46"/><path id="grid-line__20000000000" stroke="#ddd" stroke-dasharray="3,2" stroke-width="1" d="M82.02 302.8h615.46"/><path id="grid-line__25000000000" stroke="#ddd" stroke-dasharray="3,2" stroke-width="1" d="M82.02 245.6h615.46"/><path id="grid-line__30000000000" stroke="#ddd" stroke-dasharray="3,2" stroke-width="1" d="M82.02 188.5h615.46"/><path id="grid-line__35000000000" stroke="#ddd" stroke-dasharray="3,2" stroke-width="1" d="M82.02 131.4h615.46"/></g></g><g clip-path="url(#boundsClip-391)"><g id="line-labels" class="LineLabels"><g id="mark__International-aviation" class="legendMark" style="cursor:default"><g id="connector" class="indicator"><path fill="none" stroke="#999" stroke-width=".5" d="M701.48 109.2h21.6v5.1h5.4"/></g><text id="label" x="732.5" y="112.5" fill="#8c4569" font-size="13.5" font-weight="400"><tspan x="732.48" y="112.55">International</tspan><tspan x="732.48" y="126.05">aviation</tspan></text></g><g id="mark__International-shipping" class="legendMark" style="cursor:default"><g class="indicator"><path fill="none" stroke="#999" stroke-width=".5" d="M701.48 115.2h16.2v28.1h10.8"/></g><text x="732.5" y="141.5" fill="#a46a62" font-size="13.5" font-weight="400"><tspan x="732.48" y="141.55">International</tspan><tspan x="732.48" y="155.05">shipping</tspan></text></g><g id="mark__Oceania" class="legendMark" style="cursor:default"><g class="indicator"><path fill="none" stroke="#999" stroke-width=".5" d="M701.48 121.3h10.8v44.25h16.2"/></g><text x="732.5" y="170.5" fill="#af8454" font-size="13.5" font-weight="400"><tspan x="732.48" y="170.55">Oceania</tspan></text></g><g id="mark__Asia-__0028excl__002e-China-and-India__0029" class="legendMark" style="cursor:default"><g class="indicator"><path fill="none" stroke="#999" stroke-width=".5" d="M701.48 166.9h5.4v20.9h21.6"/></g><text x="732.5" y="186" fill="#578145" font-size="13.5" font-weight="400"><tspan x="732.48" y="186.05">Asia (excl. China</tspan><tspan x="732.48" y="199.55">and India)</tspan></text></g><g id="mark__China" class="legendMark" style="cursor:default"><g class="indicator"><path fill="none" stroke="#999" stroke-width=".5" d="M701.48 275.2h27"/></g><text x="732.5" y="280.2" fill="#d73c50" font-size="13.5" font-weight="400"><tspan x="732.48" y="280.19">China</tspan></text></g><g id="mark__India" class="legendMark" style="cursor:default"><g class="indicator"><path fill="none" stroke="#999" stroke-width=".5" d="M701.48 356.5h27"/></g><text x="732.5" y="361.5" fill="#883039" font-size="13.5" font-weight="400"><tspan x="732.48" y="361.5">India</tspan></text></g><g id="mark__Africa" class="legendMark" style="cursor:default"><g class="indicator"><path fill="none" stroke="#999" stroke-width=".5" d="M701.48 380.7h9v-3.82h18"/></g><text x="732.5" y="381.9" fill="#00847e" font-size="13.5" font-weight="400"><tspan x="732.48" y="381.88">Africa</tspan></text></g><g id="mark__South-America" class="legendMark" style="cursor:default"><g class="indicator"><path fill="none" stroke="#999" stroke-width=".5" d="M701.48 395h18v-2.62h9"/></g><text x="732.5" y="397.4" fill="#6d3e91" font-size="13.5" font-weight="400"><tspan x="732.48" y="397.38">South America</tspan></text></g><g id="mark__North-America-__0028excl__002e-USA__0029" class="legendMark" style="cursor:default"><g class="indicator"><path fill="none" stroke="#999" stroke-width=".5" d="M701.48 408.2h18v6.43h9"/></g><text x="732.5" y="412.9" fill="#18470f" font-size="13.5" font-weight="400"><tspan x="732.48" y="412.88">North America</tspan><tspan x="732.48" y="426.38">(excl. USA)</tspan></text></g><g id="mark__United-States" class="legendMark" style="cursor:default"><g class="indicator"><path fill="none" stroke="#999" stroke-width=".5" d="M701.48 444.1h27"/></g><text x="732.5" y="449.1" fill="#286bbb" font-size="13.5" font-weight="400"><tspan x="732.48" y="449.1">United States</tspan></text></g><g id="mark__European-Union-__002827__0029" class="legendMark" style="cursor:default"><g class="indicator"><path fill="none" stroke="#999" stroke-width=".5" d="M701.48 488.7h27"/></g><text x="732.5" y="486.9" fill="#d96855" font-size="13.5" font-weight="400"><tspan x="732.48" y="486.94">European Union</tspan><tspan x="732.48" y="500.44">(27)</tspan></text></g><g id="mark__Europe-__0028excl__002e-EU-27__0029" class="legendMark" style="cursor:default"><g class="indicator"><path fill="none" stroke="#999" stroke-width=".5" d="M701.48 517.9h27"/></g><text x="732.5" y="516.1" fill="#9a5129" font-size="13.5" font-weight="400"><tspan x="732.48" y="516.14">Europe (excl.</tspan><tspan x="732.48" y="529.64">EU-27)</tspan></text></g></g><g id="stacked-areas" class="Areas"><path id="area__Europe-__0028excl__002e-EU-27__0029" fill="#9A5129" fill-opacity=".8" stroke-linecap="round" d="M82 531.2h45.3l2.2-.1h49.8l2.3-.1 2.2.1h4.6l2.2-.1h2.3l2.3-.1h2.2l2.3.1h6.8l2.2-.1H231.4l2.2-.1H247.2l2.3-.1h11.3l2.2-.2 2.3.1h4.5l2.3-.1h2.3l2.2-.1h2.3l2.2.1 2.3-.1h4.5l2.3-.1h2.3l2.2-.1h4.5l2.3-.1h2.3l2.2-.1 2.3-.1 2.3.1h4.5l2.2-.3 2.3.1 2.3-.1h4.5l2.3-.1 2.2-.2 2.3-.1h2.2l2.3-.1 2.3-.1 2.2-.2 2.3-.1h4.5l2.3-.1 2.2-.1 2.3-.1 2.3-.2 2.2-.1 2.3.1 2.3-.2h2.2l2.3-.1 2.2.1 2.3-.1 2.3-.3 2.2-.1 2.3-.1 2.3-.2 2.2.1 2.3.1h2.3l2.2-.1 2.3-.2 2.2-.1 2.3-.2 2.3-.1 2.2.1 2.3.4 2.3-.6 2.2-.1 2.3-.1 2.2-.2 2.3-.1 2.3-.4 2.2-.1 2.3.1 2.3-.2h2.2l2.3-.1h2.2l2.3-.3 2.3-.4 2.2.2 2.3-.1 2.3-.1 2.2-.1 2.3.1 2.2-.6 2.3.3h2.3l2.2-.2 2.3.2 2.3 1 2.2.1 2.3-.2 2.2 1.8 2.3-1.4 2.3-.4 2.2-.3 2.3.3 2.3 2.1 2.2-2.7 2.3.2 2.2-.4 2.3-.1h4.5l2.3-.2 2.3-.9 2.2-.4 2.3-.8 2.2-.2h2.3l2.3-.1 2.2-1 2.3.8 2.3 1.9h2.2l2.3-.9 2.3.1 2.2-.8 2.3-1.2 2.2-.5 2.3-.8 2.3-.8 2.2-1.1 2.3-.3 2.3-.6 2.2-.9 2.3-1.5 2.2-1 2.3-1 2.3-.7 2.2-.6 2.3-1 2.3-.5 2.2-.9 2.3-1.3 2.2-1.1 2.3-1.2 2.3-1.1 2.2-.6 2.3-.8 2.3-1.2 2.2-1.6 2.3-1.5 2.2-1.2 2.3-1.3 2.3-.4 2.2-1.3 2.3-1.2 2.3-1 2.2-1.2 2.3-.8 2.2-.5 2.3.8 2.3-.3 2.2-.6 2.3-.2 2.3-3 2.2-.4 2.3.2 2.2-1 2.3.9 2.3-2 2.2 2.6 2.3 5.9 2.3 2.6 2.2 3.9 2.3.7 2.2.5 2.3 1.6 2.3.1 2.2.4 2.3.1 2.3-.8 2.2.4 2.3-.7 2.3-.3 2.2-.1 2.3-1h2.2l2.3-.1 2.3 2.5 2.2-1.5 2.3-.3 2.3-.2 2.2.8 2.3 1.1 2.2.6 2.3.1 2.3-.1 2.2-.5 2.3.4 2.3 1.5 2.2-1.2 2.3 1.8v26.8H82" class="Europe-__0028excl__002e-EU-27__0029-area"/><path id="area__European-Union-__002827__0029" fill="#E56E5A" fill-opacity=".8" stroke-linecap="round" d="M82 531.2h45.3l2.2-.1h45.3l2.3-.1h15.8l2.3-.1h2.2l2.3-.1 2.2.2 2.3-.1H217.8l2.2-.1H231.4l2.2-.1H249.5l2.2-.1h9.1l2.2-.3 2.3.1h4.5l2.3-.1 2.3-.1 2.2-.1h6.8l2.3-.1h2.2l2.3-.1h2.3l2.2-.1 2.3-.1 2.2-.1 2.3-.1h2.3l2.2-.1 2.3-.1h2.3l2.2-.1h2.3l2.2-.4h2.3l2.3-.2h2.2l2.3-.1 2.3-.1 2.2-.3 2.3-.2 2.2-.1 2.3-.2 2.3-.3 2.2-.2 2.3-.2 2.3-.2h2.2l2.3-.3h2.2l2.3-.4 2.3-.4 2.2-.3 2.3.5 2.3-.6 2.2-.2 2.3.1 2.2-.1 2.3-.2 2.3-.8 2.2-.2 2.3-.3 2.3-.4h6.8l2.2-.3 2.3-.5 2.2-.4 2.3-.5 2.3-.3 2.2.2 2.3.2 2.3-.8 2.2-.3 2.3-.5 2.2-.5 2.3-.4 2.3-.8 2.2-.7 2.3.1h2.3l2.2-.5 2.3-.3 2.2-.4 2.3-.5 2.3-1.7 2.2-.2 2.3-.1 2.3-.2 2.2-.4 2.3-.7 2.2-1.5 2.3 2.2 2.3.9 2.2-.7 2.3.3 2.3 1.6 2.2 2.4 2.3-2.2 2.2 1.4 2.3-1.7 2.3.7 2.2-2.3 2.3.2 2.3 2.4 2.2-4.1 2.3-.1 2.2-1.6 2.3 1.1 2.3 1.3 2.2 1.3 2.3-.5 2.3-1.6 2.2-1 2.3-1.2 2.2-1.9 2.3-.1 2.3-.5 2.2-1.6 2.3 1 2.3 1.7 2.2-.1 2.3 1.3 2.3 7.5 2.2-4.8 2.3-2.9 2.2-1.7 2.3-2.1 2.3-1.6 2.2-2.9 2.3-.9 2.3-.9 2.2-2 2.3-3.1 2.2-2.4 2.3-1.7 2.3-.4 2.2-.9 2.3-2.9 2.3-1.7 2.2-2.6 2.3-3.1 2.2-2.6 2.3-1.6 2.3-2 2.2-1.3 2.3-2.8 2.3-3.4 2.2-3.2 2.3-2.7 2.2-2.6 2.3-3.3 2.3-.2 2.2-.5 2.3-4.3 2.3-.6 2.2-2.7 2.3-2h2.2l2.3 3.2 2.3.7 2.2-.1 2.3-.6 2.3-3.7 2.2-.2 2.3-.2 2.2-.4 2.3.3 2.3-2.4 2.2 3.5 2.3 7.3 2.3 3.3 2.2 4.1 2.3.3 2.2-.6 2.3 2.4 2.3.3 2.2.9 2.3.1 2.3-1.5 2.2.4 2.3-1.7 2.3-.4 2.2.1 2.3-1.1 2.2.5 2.3.8 2.3 5.9 2.2-2.7 2.3.9 2.3.5 2.2 1.8 2.3 2.6h2.2l2.3.1 2.3-.3 2.2.3 2.3 2 2.3 4.6 2.2-3.2 2.3 2.4v31.5l-2.3-1.8-2.2 1.2-2.3-1.5-2.3-.4-2.2.5-2.3.1-2.3-.1-2.2-.6-2.3-1.1-2.2-.8-2.3.2-2.3.3-2.2 1.5-2.3-2.5-2.3.1h-2.2l-2.3 1-2.2.1-2.3.3-2.3.7-2.2-.4-2.3.8-2.3-.1-2.2-.4-2.3-.1-2.3-1.6-2.2-.5-2.3-.7-2.2-3.9-2.3-2.6-2.3-5.9-2.2-2.6-2.3 2-2.3-.9-2.2 1-2.3-.2-2.2.4-2.3 3-2.3.2-2.2.6-2.3.3-2.3-.8-2.2.5-2.3.8-2.2 1.2-2.3 1-2.3 1.2-2.2 1.3-2.3.4-2.3 1.3-2.2 1.2-2.3 1.5-2.2 1.6-2.3 1.2-2.3.8-2.2.6-2.3 1.1-2.3 1.2-2.2 1.1-2.3 1.3-2.2.9-2.3.5-2.3 1-2.2.6-2.3.7-2.3 1-2.2 1-2.3 1.5-2.2.9-2.3.6-2.3.3-2.2 1.1-2.3.8-2.3.8-2.2.5-2.3 1.2-2.2.8-2.3-.1-2.3.9h-2.2l-2.3-1.9-2.3-.8-2.2 1-2.3.1h-2.3l-2.2.2-2.3.8-2.2.4-2.3.9-2.3.2h-4.5l-2.3.1-2.2.4-2.3-.2-2.2 2.7-2.3-2.1-2.3-.3-2.2.3-2.3.4-2.3 1.4-2.2-1.8-2.3.2-2.2-.1-2.3-1-2.3-.2-2.2.2h-2.3l-2.3-.3-2.2.6-2.3-.1-2.2.1-2.3.1-2.3.1-2.2-.2-2.3.4-2.3.3h-2.2l-2.3.1H426l-2.3.2-2.3-.1-2.2.1-2.3.4-2.3.1-2.2.2-2.3.1-2.2.1-2.3.6-2.3-.4-2.2-.1-2.3.1-2.3.2-2.2.1-2.3.2-2.2.1h-2.3l-2.3-.1-2.2-.1-2.3.2-2.3.1-2.2.1-2.3.3-2.3.1-2.2-.1-2.3.1h-2.2l-2.3.2-2.3-.1-2.2.1-2.3.2-2.3.1-2.2.1-2.3.1h-4.5l-2.3.1-2.2.2-2.3.1-2.3.1h-2.2l-2.3.1-2.2.2-2.3.1h-4.5l-2.3.1-2.3-.1-2.2.3h-4.5l-2.3-.1-2.3.1-2.2.1h-2.3l-2.3.1h-4.5l-2.2.1h-2.3l-2.3.1h-4.5l-2.3.1-2.2-.1h-2.3l-2.2.1h-2.3l-2.3.1h-4.5l-2.3-.1-2.2.2h-11.3l-2.3.1H233.6l-2.2.1h-22.7l-2.2.1h-6.8l-2.3-.1h-2.2l-2.3.1h-2.3l-2.2.1h-4.6l-2.2-.1-2.3.1h-49.8l-2.2.1H82" class="European-Union-__002827__0029-area"/><path id="area__United-States" fill="#286BBB" fill-opacity=".8" stroke-linecap="round" d="M82 531.2h45.3l2.2-.1h45.3l2.3-.1h15.8l2.3-.1h2.2l2.3-.1 2.2.2 2.3-.1h11.3l2.3-.1H231.4l2.2-.1H247.2l2.3-.1h4.5l2.2-.1h4.6l2.2-.2h2.3l2.3.1 2.2-.1h2.3l2.3-.1 2.2-.1h4.5l2.3-.1 2.3-.1h2.2l2.3-.1h2.3l2.2-.1 2.3-.2h2.2l2.3-.1 2.3-.1 2.2-.1 2.3-.1 2.3-.1 2.2-.1 2.3-.1 2.2-.4 2.3-.1 2.3-.2h4.5l2.3-.2 2.2-.4 2.3-.2h2.2l2.3-.3 2.3-.3 2.2-.3 2.3-.2 2.3-.3 2.2-.2 2.3-.3 2.2-.2 2.3-.3 2.3-.7 2.2-.5 2.3.5 2.3-.6 2.2-.1 2.3-.1h2.2l2.3-.6 2.3-1.1 2.2-.3 2.3-.6 2.3-.6 2.2-.1 2.3-.1 2.3-.2 2.2-.5 2.3-1.3h2.2l2.3-1.1 2.3-.7 2.2-.1 2.3.2 2.3-.5 2.2-.9 2.3-.5 2.2-.8 2.3-.9 2.3-1.7 2.2-1.1 2.3-.5 2.3-.5 2.2-2 2.3-.2 2.2-1.6 2.3-1 2.3-3.6 2.2 1.4 2.3-1.3 2.3-1.4 2.2-.3 2.3-1.6 2.2-2.7 2.3 3.7 2.3.3 2.2-2.5 2.3-1.4 2.3.7 2.2 5.5 2.3-5.2 2.2 5 2.3-1.8 2.3-4.5 2.2-.1 2.3-.5 2.3.8 2.2-3.7 2.3.3 2.2-3.1 2.3 3.6 2.3 4.3 2.2 3.9 2.3-1.6 2.3-2.6 2.2-1.6 2.3-3.8 2.2-2.8 2.3 3.1 2.3-2.3 2.2-3.9 2.3-.9 2.3-.1 2.2-1 2.3-.6 2.3 8.4 2.2-3.6 2.3-5.5 2.2-2.8 2.3 2.6 2.3-5.9 2.2-3.7 2.3-.2 2.3-1.6 2.2-.6 2.3-5.7 2.2-3.9 2.3-1.5 2.3.6 2.2-1.9 2.3-3.6 2.3-1.5 2.2-3.9 2.3-4.6 2.2-4.2 2.3-3.2 2.3-3.9 2.2-2.8 2.3-4.4 2.3-5.6 2.2-6.7 2.3-2.9 2.2-5 2.3-5.8 2.3 1.7 2.2 1.2 2.3-7.4 2.3-2.3 2.2-3.2 2.3-2.8 2.2 2.2 2.3 4.6 2.3 3.4 2.2.2 2.3-3.3 2.3-3.6 2.2-.2 2.3-2.2 2.2-3 2.3-.5 2.3-2.3 2.2 4.1 2.3 6.1 2.3 2.2 2.2 3 2.3-.4 2.2-2.7 2.3 1.5 2.3-.2 2.2.1 2.3-2.3 2.3-.3 2.2-.1 2.3-2.4 2.3-1.5 2.2-.1 2.3-.3 2.2-.4 2.3 3.3 2.3 10.8 2.2-4.9 2.3 2.4 2.3 2.9 2.2.2 2.3 2.1 2.2 1.7 2.3 1.5 2.3.1 2.2-1.6 2.3 3.4L693 420l2.2-6.9 2.3 2.1V473l-2.3-2.4-2.2 3.2-2.3-4.6-2.3-2-2.2-.3-2.3.3-2.3-.1h-2.2l-2.3-2.6-2.2-1.8-2.3-.5-2.3-.9-2.2 2.7-2.3-5.9-2.3-.8-2.2-.5-2.3 1.1-2.2-.1-2.3.4-2.3 1.7-2.2-.4-2.3 1.5-2.3-.1-2.2-.9-2.3-.3-2.3-2.4-2.2.6-2.3-.3-2.2-4.1-2.3-3.3-2.3-7.3-2.2-3.5-2.3 2.4-2.3-.3-2.2.4-2.3.2-2.2.2-2.3 3.7-2.3.6-2.2.1-2.3-.7-2.3-3.2h-2.2l-2.3 2-2.2 2.7-2.3.6-2.3 4.3-2.2.5-2.3.2-2.3 3.3-2.2 2.6-2.3 2.7-2.2 3.2-2.3 3.4-2.3 2.8-2.2 1.3-2.3 2-2.3 1.6-2.2 2.6-2.3 3.1-2.2 2.6-2.3 1.7-2.3 2.9-2.2.9-2.3.4-2.3 1.7-2.2 2.4-2.3 3.1-2.2 2-2.3.9-2.3.9-2.2 2.9-2.3 1.6-2.3 2.1-2.2 1.7-2.3 2.9-2.2 4.8-2.3-7.5-2.3-1.3-2.2.1-2.3-1.7-2.3-1-2.2 1.6-2.3.5-2.3.1-2.2 1.9-2.3 1.2-2.2 1-2.3 1.6-2.3.5-2.2-1.3-2.3-1.3-2.3-1.1-2.2 1.6-2.3.1-2.2 4.1-2.3-2.4-2.3-.2-2.2 2.3-2.3-.7-2.3 1.7-2.2-1.4-2.3 2.2-2.2-2.4-2.3-1.6-2.3-.3-2.2.7-2.3-.9-2.3-2.2-2.2 1.5-2.3.7-2.2.4-2.3.2-2.3.1-2.2.2-2.3 1.7-2.3.5-2.2.4-2.3.3-2.2.5h-2.3l-2.3-.1-2.2.7-2.3.8-2.3.4-2.2.5-2.3.5-2.2.3-2.3.8-2.3-.2-2.2-.2-2.3.3-2.3.5-2.2.4-2.3.5-2.2.3H383l-2.3.4-2.3.3-2.2.2-2.3.8-2.3.2-2.2.1-2.3-.1-2.2.2-2.3.6-2.3-.5-2.2.3-2.3.4-2.3.4h-2.2l-2.3.3h-2.2l-2.3.2-2.3.2-2.2.2-2.3.3-2.3.2-2.2.1-2.3.2-2.2.3-2.3.1-2.3.1h-2.2l-2.3.2h-2.3l-2.2.4h-2.3l-2.2.1h-2.3l-2.3.1-2.2.1h-2.3l-2.3.1-2.2.1-2.3.1-2.2.1h-2.3l-2.3.1h-2.2l-2.3.1h-6.8l-2.2.1-2.3.1-2.3.1h-4.5l-2.3-.1-2.2.3h-9.1l-2.2.1H233.6l-2.2.1H220l-2.2.1H204.2l-2.3.1-2.2-.2-2.3.1h-2.2l-2.3.1h-15.8l-2.3.1h-45.3l-2.2.1H82" class="United-States-area"/><path id="area__North-America-__0028excl__002e-USA__0029" fill="#18470F" fill-opacity=".8" stroke-linecap="round" d="M82 531.2h45.3l2.2-.1h45.3l2.3-.1h15.8l2.3-.1h2.2l2.3-.1 2.2.2 2.3-.1h11.3l2.3-.1H231.4l2.2-.1H247.2l2.3-.1h4.5l2.2-.1h4.6l2.2-.2h2.3l2.3.1 2.2-.1h2.3l2.3-.1 2.2-.1h4.5l2.3-.1 2.3-.1h2.2l2.3-.1h2.3l2.2-.1 2.3-.2h2.2l2.3-.2h2.3l2.2-.1 2.3-.1 2.3-.1 2.2-.1 2.3-.1 2.2-.4 2.3-.1 2.3-.2h4.5l2.3-.2 2.2-.4 2.3-.2h2.2l2.3-.3 2.3-.3 2.2-.3 2.3-.2 2.3-.3 2.2-.2 2.3-.3 2.2-.2 2.3-.4 2.3-.6 2.2-.5 2.3.5 2.3-.6 2.2-.1 2.3-.1 2.2-.1 2.3-.5 2.3-1.2 2.2-.3 2.3-.5 2.3-.7 2.2-.1 2.3-.1 2.3-.2 2.2-.5 2.3-1.3h2.2l2.3-1.2 2.3-.7 2.2-.1 2.3.3 2.3-.5 2.2-.9 2.3-.6 2.2-.7 2.3-1 2.3-1.7 2.2-1.1 2.3-.6 2.3-.5 2.2-2.1 2.3-.2 2.2-1.6 2.3-1.1 2.3-3.7 2.2 1.4 2.3-1.2 2.3-1.5 2.2-.5 2.3-1.7 2.2-2.8 2.3 3.8 2.3.3 2.2-2.7 2.3-1.6 2.3.6 2.2 5.5 2.3-5.6 2.2 4.8 2.3-1.6 2.3-4.6 2.2.1 2.3-.4 2.3.9 2.2-3.6 2.3.3 2.2-3.2 2.3 3.7 2.3 4.6 2.2 3.9 2.3-1.5 2.3-2.8 2.2-1.7 2.3-3.9 2.2-2.8 2.3 3.1 2.3-2.4 2.2-4.1 2.3-1 2.3-.2 2.2-1 2.3-.7 2.3 8.5 2.2-3.8 2.3-5.6 2.2-3 2.3 2.9 2.3-6.1 2.2-3.9 2.3-.1 2.3-1.7 2.2-.7 2.3-5.8 2.2-4.3 2.3-1.4 2.3.5 2.2-2 2.3-3.7 2.3-1.6 2.2-4.1 2.3-4.6 2.2-4.7 2.3-3.3 2.3-4.1 2.2-3.2 2.3-4.7 2.3-5.9 2.2-7.3 2.3-3.2 2.2-5.4 2.3-6.1 2.3 1.5 2.2.9 2.3-7.7 2.3-2.5 2.2-3.6 2.3-3.4 2.2 1.9 2.3 4.7 2.3 3.3 2.2.6 2.3-3.5 2.3-3.7h2.2l2.3-2.6 2.2-3.3 2.3-.9 2.3-2.1 2.2 4.1 2.3 5.8 2.3 2.1 2.2 2.8 2.3-.5 2.2-3 2.3 1 2.3-.5 2.2-.2 2.3-2.8 2.3-.4 2.2-.2 2.3-3 2.3-1.5 2.2-.5 2.3-.4 2.2-.7 2.3 3.5 2.3 11.4 2.2-5.1 2.3 1.9 2.3 2.7 2.2.2 2.3 2.3 2.2 1.6 2.3 1.7 2.3.2 2.2-1.7 2.3 3.2 2.3 12.2 2.2-7.4 2.3 1.4v14l-2.3-2.1-2.2 6.9-2.3-10.9-2.3-3.4-2.2 1.6-2.3-.1-2.3-1.5-2.2-1.7-2.3-2.1-2.2-.2-2.3-2.9-2.3-2.4-2.2 4.9-2.3-10.8-2.3-3.3-2.2.4-2.3.3-2.2.1-2.3 1.5-2.3 2.4-2.2.1-2.3.3-2.3 2.3-2.2-.1-2.3.2-2.3-1.5-2.2 2.7-2.3.4-2.2-3-2.3-2.2-2.3-6.1-2.2-4.1-2.3 2.3-2.3.5-2.2 3-2.3 2.2-2.2.2-2.3 3.6-2.3 3.3-2.2-.2-2.3-3.4-2.3-4.6-2.2-2.2-2.3 2.8-2.2 3.2-2.3 2.3-2.3 7.4-2.2-1.2-2.3-1.7-2.3 5.8-2.2 5-2.3 2.9-2.2 6.7-2.3 5.6-2.3 4.4-2.2 2.8-2.3 3.9-2.3 3.2-2.2 4.2-2.3 4.6-2.2 3.9-2.3 1.5-2.3 3.6-2.2 1.9-2.3-.6-2.3 1.5-2.2 3.9-2.3 5.7-2.2.6-2.3 1.6-2.3.2-2.2 3.7-2.3 5.9-2.3-2.6-2.2 2.8-2.3 5.5-2.2 3.6-2.3-8.4-2.3.6-2.2 1-2.3.1-2.3.9-2.2 3.9-2.3 2.3-2.3-3.1-2.2 2.8-2.3 3.8-2.2 1.6-2.3 2.6-2.3 1.6-2.2-3.9-2.3-4.3-2.3-3.6-2.2 3.1-2.3-.3-2.2 3.7-2.3-.8-2.3.5-2.2.1-2.3 4.5-2.3 1.8-2.2-5-2.3 5.2-2.2-5.5-2.3-.7-2.3 1.4-2.2 2.5-2.3-.3-2.3-3.7-2.2 2.7-2.3 1.6-2.2.3-2.3 1.4-2.3 1.3-2.2-1.4-2.3 3.6-2.3 1-2.2 1.6-2.3.2-2.2 2-2.3.5-2.3.5-2.2 1.1-2.3 1.7-2.3.9-2.2.8-2.3.5-2.2.9-2.3.5-2.3-.2-2.2.1-2.3.7-2.3 1.1h-2.2l-2.3 1.3-2.2.5-2.3.2-2.3.1-2.2.1-2.3.6-2.3.6-2.2.3-2.3 1.1-2.3.6h-2.2l-2.3.1-2.2.1-2.3.6-2.3-.5-2.2.5-2.3.7-2.3.3-2.2.2-2.3.3-2.2.2-2.3.3-2.3.2-2.2.3-2.3.3-2.3.3h-2.2l-2.3.2-2.2.4-2.3.2h-4.5l-2.3.2-2.3.1-2.2.4-2.3.1-2.2.1-2.3.1-2.3.1-2.2.1-2.3.1-2.3.1H297l-2.3.2-2.2.1h-2.3l-2.3.1h-2.2l-2.3.1-2.3.1h-4.5l-2.2.1-2.3.1h-2.3l-2.2.1-2.3-.1H263l-2.2.2h-4.6l-2.2.1h-4.5l-2.3.1H233.6l-2.2.1H217.8l-2.3.1h-11.3l-2.3.1-2.2-.2-2.3.1h-2.2l-2.3.1h-15.8l-2.3.1h-45.3l-2.2.1H82" class="North-America-__0028excl__002e-USA__0029-area"/><path id="area__South-America" fill="#6D3E91" fill-opacity=".8" stroke-linecap="round" d="M82 531.2h45.3l2.2-.1h45.3l2.3-.1h15.8l2.3-.1h2.2l2.3-.1 2.2.2 2.3-.1h11.3l2.3-.1H231.4l2.2-.1H247.2l2.3-.1h4.5l2.2-.1h4.6l2.2-.2h2.3l2.3.1 2.2-.1h2.3l2.3-.1 2.2-.1h4.5l2.3-.1 2.3-.1h2.2l2.3-.1h2.3l2.2-.1 2.3-.2h2.2l2.3-.2h2.3l2.2-.1 2.3-.1 2.3-.1 2.2-.1 2.3-.1 2.2-.4 2.3-.1 2.3-.2h4.5l2.3-.2 2.2-.4 2.3-.2h2.2l2.3-.3 2.3-.3 2.2-.3 2.3-.2 2.3-.3 2.2-.2 2.3-.3 2.2-.2 2.3-.4 2.3-.6 2.2-.5 2.3.5 2.3-.6 2.2-.1 2.3-.1 2.2-.1 2.3-.5 2.3-1.2 2.2-.3 2.3-.5 2.3-.7 2.2-.1 2.3-.1 2.3-.2 2.2-.5 2.3-1.3h2.2l2.3-1.2 2.3-.7 2.2-.1 2.3.2 2.3-.5 2.2-.9 2.3-.5 2.2-.8 2.3-.9 2.3-1.8 2.2-1 2.3-.7 2.3-.5 2.2-2.1 2.3-.2 2.2-1.6 2.3-1.1 2.3-3.7 2.2 1.4 2.3-1.3 2.3-1.5 2.2-.5 2.3-1.7 2.2-2.9 2.3 3.9 2.3.4 2.2-2.7 2.3-1.6 2.3.6 2.2 5.5 2.3-5.7 2.2 4.9 2.3-1.7 2.3-4.7 2.2.1 2.3-.4 2.3.8 2.2-3.6 2.3.4 2.2-3.3 2.3 3.8 2.3 4.6 2.2 3.9 2.3-1.6 2.3-2.9 2.2-1.6 2.3-3.9 2.2-3 2.3 3.2 2.3-2.5 2.2-4 2.3-1.1 2.3-.1 2.2-1.1 2.3-.8 2.3 8.6 2.2-4.6 2.3-4.9 2.2-3.1 2.3 2.9 2.3-6.6 2.2-4.1 2.3-.3 2.3-1.6 2.2-.8 2.3-6.1 2.2-4.4 2.3-1.5 2.3.6 2.2-2.2 2.3-3.7 2.3-1.6 2.2-4.2 2.3-4.7 2.2-4.8 2.3-3.5 2.3-4.2 2.2-3.4 2.3-4.9 2.3-6.1 2.2-7.7 2.3-3.3 2.2-5.6 2.3-6.4 2.3 1.2 2.2 1 2.3-7.8 2.3-2.6 2.2-4 2.3-3.7 2.2 1.7 2.3 4.9 2.3 3.3 2.2.7 2.3-3.6 2.3-3.9 2.2-.3 2.3-2.9 2.2-3.5 2.3-.9 2.3-2.3 2.2 3.9 2.3 5.8 2.3 1.7 2.2 2.7 2.3-.9 2.2-3.4 2.3.5 2.3-1.2h2.2l2.3-2.7 2.3-.2 2.2-.6 2.3-3 2.3-1.9 2.2-.7 2.3-.8 2.2-1.1 2.3 3 2.3 11.7 2.2-6.4 2.3 1.8 2.3 2 2.2-.5 2.3 2 2.2 2.1 2.3 2.2 2.3.4 2.2-1 2.3 3.2 2.3 13.4 2.2-8.8 2.3 1.4v12.4l-2.3-1.4-2.2 7.4-2.3-12.2-2.3-3.2-2.2 1.7-2.3-.2-2.3-1.7-2.2-1.6-2.3-2.3-2.2-.2-2.3-2.7-2.3-1.9-2.2 5.1-2.3-11.4-2.3-3.5-2.2.7-2.3.4-2.2.5-2.3 1.5-2.3 3-2.2.2-2.3.4-2.3 2.8-2.2.2-2.3.5-2.3-1-2.2 3-2.3.5-2.2-2.8-2.3-2.1-2.3-5.8-2.2-4.1-2.3 2.1-2.3.9-2.2 3.3-2.3 2.6h-2.2l-2.3 3.7-2.3 3.5-2.2-.6-2.3-3.3-2.3-4.7-2.2-1.9-2.3 3.4-2.2 3.6-2.3 2.5-2.3 7.7-2.2-.9-2.3-1.5-2.3 6.1-2.2 5.4-2.3 3.2-2.2 7.3-2.3 5.9-2.3 4.7-2.2 3.2-2.3 4.1-2.3 3.3-2.2 4.7-2.3 4.6-2.2 4.1-2.3 1.6-2.3 3.7-2.2 2-2.3-.5-2.3 1.4-2.2 4.3-2.3 5.8-2.2.7-2.3 1.7-2.3.1-2.2 3.9-2.3 6.1-2.3-2.9-2.2 3-2.3 5.6-2.2 3.8-2.3-8.5-2.3.7-2.2 1-2.3.2-2.3 1-2.2 4.1-2.3 2.4-2.3-3.1-2.2 2.8-2.3 3.9-2.2 1.7-2.3 2.8-2.3 1.5-2.2-3.9-2.3-4.6-2.3-3.7-2.2 3.2-2.3-.3-2.2 3.6-2.3-.9-2.3.4-2.2-.1-2.3 4.6-2.3 1.6-2.2-4.8-2.3 5.6-2.2-5.5-2.3-.6-2.3 1.6-2.2 2.7-2.3-.3-2.3-3.8-2.2 2.8-2.3 1.7-2.2.5-2.3 1.5-2.3 1.2-2.2-1.4-2.3 3.7-2.3 1.1-2.2 1.6-2.3.2-2.2 2.1-2.3.5-2.3.6-2.2 1.1-2.3 1.7-2.3 1-2.2.7-2.3.6-2.2.9-2.3.5-2.3-.3-2.2.1-2.3.7-2.3 1.2h-2.2l-2.3 1.3-2.2.5-2.3.2-2.3.1-2.2.1-2.3.7-2.3.5-2.2.3-2.3 1.2-2.3.5-2.2.1-2.3.1-2.2.1-2.3.6-2.3-.5-2.2.5-2.3.6-2.3.4-2.2.2-2.3.3-2.2.2-2.3.3-2.3.2-2.2.3-2.3.3-2.3.3h-2.2l-2.3.2-2.2.4-2.3.2h-4.5l-2.3.2-2.3.1-2.2.4-2.3.1-2.2.1-2.3.1-2.3.1-2.2.1h-2.3l-2.3.2H297l-2.3.2-2.2.1h-2.3l-2.3.1h-2.2l-2.3.1-2.3.1h-4.5l-2.2.1-2.3.1h-2.3l-2.2.1-2.3-.1H263l-2.2.2h-4.6l-2.2.1h-4.5l-2.3.1H233.6l-2.2.1H217.8l-2.3.1h-11.3l-2.3.1-2.2-.2-2.3.1h-2.2l-2.3.1h-15.8l-2.3.1h-45.3l-2.2.1H82" class="South-America-area"/><path id="area__Africa" fill="#00847E" fill-opacity=".8" stroke-linecap="round" d="M82 531.2h45.3l2.2-.1h45.3l2.3-.1h15.8l2.3-.1h2.2l2.3-.1 2.2.2 2.3-.1h11.3l2.3-.1H231.4l2.2-.1H247.2l2.3-.1h4.5l2.2-.1h4.6l2.2-.2h2.3l2.3.1 2.2-.1h2.3l2.3-.1 2.2-.1h4.5l2.3-.1 2.3-.1h2.2l2.3-.1h2.3l2.2-.1 2.3-.2h2.2l2.3-.2h2.3l2.2-.1 2.3-.1 2.3-.1 2.2-.1 2.3-.1 2.2-.4 2.3-.1 2.3-.2h4.5l2.3-.2 2.2-.4 2.3-.2h2.2l2.3-.3 2.3-.3 2.2-.3 2.3-.2 2.3-.3 2.2-.2 2.3-.3 2.2-.2 2.3-.4 2.3-.6 2.2-.5 2.3.5 2.3-.6 2.2-.1 2.3-.1 2.2-.1 2.3-.5 2.3-1.2 2.2-.3 2.3-.5 2.3-.7 2.2-.1 2.3-.1 2.3-.2 2.2-.5 2.3-1.3h2.2l2.3-1.2 2.3-.7 2.2-.1 2.3.2 2.3-.5 2.2-.9 2.3-.5 2.2-.8 2.3-1 2.3-1.7 2.2-1.1 2.3-.6 2.3-.6 2.2-2.1 2.3-.2 2.2-1.6 2.3-1.2 2.3-3.7 2.2 1.4 2.3-1.3 2.3-1.5 2.2-.5 2.3-1.7 2.2-2.9 2.3 3.8 2.3.5 2.2-2.8 2.3-1.6 2.3.6 2.2 5.5 2.3-5.7 2.2 4.9 2.3-1.6 2.3-4.8 2.2.1 2.3-.4 2.3.8 2.2-3.6 2.3.3 2.2-3.3 2.3 3.8 2.3 4.6 2.2 4 2.3-1.6 2.3-2.9 2.2-1.8 2.3-3.9 2.2-3 2.3 3.2 2.3-2.5 2.2-4.1 2.3-1.1 2.3-.2 2.2-1 2.3-.9 2.3 8.5 2.2-4.5 2.3-5 2.2-3.1 2.3 2.8 2.3-6.8 2.2-4.2 2.3-.3 2.3-1.6 2.2-1 2.3-6.2 2.2-4.4 2.3-1.6 2.3.5 2.2-2.2 2.3-3.8 2.3-1.7 2.2-4.2 2.3-4.8 2.2-5 2.3-3.7 2.3-4.3 2.2-3.6 2.3-5.1 2.3-6.4 2.2-7.9 2.3-3.7 2.2-5.8 2.3-6.7 2.3 1.1 2.2 1 2.3-8.2 2.3-2.8 2.2-4.3 2.3-4.1 2.2 1.3 2.3 4.7 2.3 3.1 2.2.4 2.3-4.2 2.3-4.1 2.2-.5 2.3-3 2.2-3.9 2.3-.6 2.3-1.9 2.2 3.7 2.3 5.9 2.3 1.3 2.2 1.7 2.3-1.4 2.2-3.7 2.3.2 2.3-1.4 2.2.2 2.3-3.2h2.3l2.2-.4 2.3-4 2.3-2.5 2.2-1 2.3-1 2.2-1.5 2.3 2.4 2.3 11.7 2.2-6.9 2.3 1.4 2.3 2 2.2-.6 2.3 1.1 2.2 2.3 2.3 1.8 2.3.2 2.2-.8 2.3 2.1 2.3 14.5 2.2-9.7 2.3 1.6v16.2l-2.3-1.4-2.2 8.8-2.3-13.4-2.3-3.2-2.2 1-2.3-.4-2.3-2.2-2.2-2.1-2.3-2-2.2.5-2.3-2-2.3-1.8-2.2 6.4-2.3-11.7-2.3-3-2.2 1.1-2.3.8-2.2.7-2.3 1.9-2.3 3-2.2.6-2.3.2-2.3 2.7h-2.2l-2.3 1.2-2.3-.5-2.2 3.4-2.3.9-2.2-2.7-2.3-1.7-2.3-5.8-2.2-3.9-2.3 2.3-2.3.9-2.2 3.5-2.3 2.9-2.2.3-2.3 3.9-2.3 3.6-2.2-.7-2.3-3.3-2.3-4.9-2.2-1.7-2.3 3.7-2.2 4-2.3 2.6-2.3 7.8-2.2-1-2.3-1.2-2.3 6.4-2.2 5.6-2.3 3.3-2.2 7.7-2.3 6.1-2.3 4.9-2.2 3.4-2.3 4.2-2.3 3.5-2.2 4.8-2.3 4.7-2.2 4.2-2.3 1.6-2.3 3.7-2.2 2.2-2.3-.6-2.3 1.5-2.2 4.4-2.3 6.1-2.2.8-2.3 1.6-2.3.3-2.2 4.1-2.3 6.6-2.3-2.9-2.2 3.1-2.3 4.9-2.2 4.6-2.3-8.6-2.3.8-2.2 1.1-2.3.1-2.3 1.1-2.2 4-2.3 2.5-2.3-3.2-2.2 3-2.3 3.9-2.2 1.6-2.3 2.9-2.3 1.6-2.2-3.9-2.3-4.6-2.3-3.8-2.2 3.3-2.3-.4-2.2 3.6-2.3-.8-2.3.4-2.2-.1-2.3 4.7-2.3 1.7-2.2-4.9-2.3 5.7-2.2-5.5-2.3-.6-2.3 1.6-2.2 2.7-2.3-.4-2.3-3.9-2.2 2.9-2.3 1.7-2.2.5-2.3 1.5-2.3 1.3-2.2-1.4-2.3 3.7-2.3 1.1-2.2 1.6-2.3.2-2.2 2.1-2.3.5-2.3.7-2.2 1-2.3 1.8-2.3.9-2.2.8-2.3.5-2.2.9-2.3.5-2.3-.2-2.2.1-2.3.7-2.3 1.2h-2.2l-2.3 1.3-2.2.5-2.3.2-2.3.1-2.2.1-2.3.7-2.3.5-2.2.3-2.3 1.2-2.3.5-2.2.1-2.3.1-2.2.1-2.3.6-2.3-.5-2.2.5-2.3.6-2.3.4-2.2.2-2.3.3-2.2.2-2.3.3-2.3.2-2.2.3-2.3.3-2.3.3h-2.2l-2.3.2-2.2.4-2.3.2h-4.5l-2.3.2-2.3.1-2.2.4-2.3.1-2.2.1-2.3.1-2.3.1-2.2.1h-2.3l-2.3.2H297l-2.3.2-2.2.1h-2.3l-2.3.1h-2.2l-2.3.1-2.3.1h-4.5l-2.2.1-2.3.1h-2.3l-2.2.1-2.3-.1H263l-2.2.2h-4.6l-2.2.1h-4.5l-2.3.1H233.6l-2.2.1H217.8l-2.3.1h-11.3l-2.3.1-2.2-.2-2.3.1h-2.2l-2.3.1h-15.8l-2.3.1h-45.3l-2.2.1H82" class="Africa-area"/><path id="area__India" fill="#883039" fill-opacity=".8" stroke-linecap="round" d="M82 531.2h45.3l2.2-.1h45.3l2.3-.1h15.8l2.3-.1h2.2l2.3-.1 2.2.2 2.3-.1h11.3l2.3-.1H231.4l2.2-.1H247.2l2.3-.1h4.5l2.2-.1h4.6l2.2-.2h2.3l2.3.1 2.2-.1h2.3l2.3-.1 2.2-.1h4.5l2.3-.1 2.3-.1h2.2l2.3-.1h2.3l2.2-.1 2.3-.2h2.2l2.3-.2h2.3l2.2-.1 2.3-.1 2.3-.1 2.2-.1 2.3-.1 2.2-.4 2.3-.1 2.3-.2h4.5l2.3-.2 2.2-.4 2.3-.2h2.2l2.3-.3 2.3-.3 2.2-.3 2.3-.2 2.3-.4 2.2-.1 2.3-.3 2.2-.2 2.3-.4 2.3-.7 2.2-.4 2.3.5 2.3-.6 2.2-.1 2.3-.2h2.2l2.3-.6 2.3-1.1 2.2-.3 2.3-.6 2.3-.6 2.2-.1 2.3-.1 2.3-.2 2.2-.6 2.3-1.3h2.2l2.3-1.2 2.3-.6 2.2-.1 2.3.2 2.3-.5 2.2-1 2.3-.5 2.2-.8 2.3-1 2.3-1.7 2.2-1.1 2.3-.7 2.3-.5 2.2-2.1 2.3-.3 2.2-1.6 2.3-1.2 2.3-3.7 2.2 1.3 2.3-1.2 2.3-1.6 2.2-.5 2.3-1.7 2.2-2.9 2.3 3.8 2.3.4 2.2-2.8 2.3-1.6 2.3.6 2.2 5.4 2.3-5.6 2.2 4.8 2.3-1.6 2.3-4.7h2.2l2.3-.4 2.3.8 2.2-3.6 2.3.3 2.2-3.3 2.3 3.8 2.3 4.7 2.2 4 2.3-1.6 2.3-3 2.2-1.7 2.3-3.9 2.2-3.1 2.3 3.1 2.3-2.5 2.2-4.1 2.3-1.1 2.3-.2 2.2-1 2.3-.9 2.3 8.5 2.2-4.5 2.3-5 2.2-3.1 2.3 2.7 2.3-6.8 2.2-4.2 2.3-.4 2.3-1.6 2.2-1 2.3-6.3 2.2-4.4 2.3-1.8 2.3.5 2.2-2.2 2.3-4 2.3-1.8 2.2-4.3 2.3-5 2.2-4.9 2.3-3.9 2.3-4.3 2.2-3.6 2.3-5.3 2.3-6.4 2.2-8 2.3-3.8 2.2-5.9 2.3-6.8 2.3 1 2.2.8 2.3-8.3 2.3-2.9 2.2-4.4 2.3-4.3 2.2 1.2 2.3 4.4 2.3 3 2.2.1 2.3-4.4 2.3-4.4 2.2-.9 2.3-3.3 2.2-4.3 2.3-1.2 2.3-2.3 2.2 3.2 2.3 5.5 2.3 1.1 2.2 1.3 2.3-2 2.2-4.4 2.3-.2 2.3-1.6 2.2-.7 2.3-3.4 2.3-.3 2.2-.6 2.3-4.5 2.3-3.3 2.2-1.6 2.3-2.3 2.2-2.6 2.3 1.3 2.3 10.2 2.2-7.5 2.3.3 2.3.2 2.2-1.4 2.3-.7 2.2 1.4 2.3.4 2.3-.6 2.2-2.8 2.3 1.9L693 353l2.2-12.6 2.3-.1v32.3l-2.3-1.6-2.2 9.7-2.3-14.5-2.3-2.1-2.2.8-2.3-.2-2.3-1.8-2.2-2.3-2.3-1.1-2.2.6-2.3-2-2.3-1.4-2.2 6.9-2.3-11.7-2.3-2.4-2.2 1.5-2.3 1-2.2 1-2.3 2.5-2.3 4-2.2.4h-2.3l-2.3 3.2-2.2-.2-2.3 1.4-2.3-.2-2.2 3.7-2.3 1.4-2.2-1.7-2.3-1.3-2.3-5.9-2.2-3.7-2.3 1.9-2.3.6-2.2 3.9-2.3 3-2.2.5-2.3 4.1-2.3 4.2-2.2-.4-2.3-3.1-2.3-4.7-2.2-1.3-2.3 4.1-2.2 4.3-2.3 2.8-2.3 8.2-2.2-1-2.3-1.1-2.3 6.7-2.2 5.8-2.3 3.7-2.2 7.9-2.3 6.4-2.3 5.1-2.2 3.6-2.3 4.3-2.3 3.7-2.2 5-2.3 4.8-2.2 4.2-2.3 1.7-2.3 3.8-2.2 2.2-2.3-.5-2.3 1.6-2.2 4.4-2.3 6.2-2.2 1-2.3 1.6-2.3.3-2.2 4.2-2.3 6.8-2.3-2.8-2.2 3.1-2.3 5-2.2 4.5-2.3-8.5-2.3.9-2.2 1-2.3.2-2.3 1.1-2.2 4.1-2.3 2.5-2.3-3.2-2.2 3-2.3 3.9-2.2 1.8-2.3 2.9-2.3 1.6-2.2-4-2.3-4.6-2.3-3.8-2.2 3.3-2.3-.3-2.2 3.6-2.3-.8-2.3.4-2.2-.1-2.3 4.8-2.3 1.6-2.2-4.9-2.3 5.7-2.2-5.5-2.3-.6-2.3 1.6-2.2 2.8-2.3-.5-2.3-3.8-2.2 2.9-2.3 1.7-2.2.5-2.3 1.5-2.3 1.3-2.2-1.4-2.3 3.7-2.3 1.2-2.2 1.6-2.3.2-2.2 2.1-2.3.6-2.3.6-2.2 1.1-2.3 1.7-2.3 1-2.2.8-2.3.5-2.2.9-2.3.5-2.3-.2-2.2.1-2.3.7-2.3 1.2h-2.2l-2.3 1.3-2.2.5-2.3.2-2.3.1-2.2.1-2.3.7-2.3.5-2.2.3-2.3 1.2-2.3.5-2.2.1-2.3.1-2.2.1-2.3.6-2.3-.5-2.2.5-2.3.6-2.3.4-2.2.2-2.3.3-2.2.2-2.3.3-2.3.2-2.2.3-2.3.3-2.3.3h-2.2l-2.3.2-2.2.4-2.3.2h-4.5l-2.3.2-2.3.1-2.2.4-2.3.1-2.2.1-2.3.1-2.3.1-2.2.1h-2.3l-2.3.2H297l-2.3.2-2.2.1h-2.3l-2.3.1h-2.2l-2.3.1-2.3.1h-4.5l-2.2.1-2.3.1h-2.3l-2.2.1-2.3-.1H263l-2.2.2h-4.6l-2.2.1h-4.5l-2.3.1H233.6l-2.2.1H217.8l-2.3.1h-11.3l-2.3.1-2.2-.2-2.3.1h-2.2l-2.3.1h-15.8l-2.3.1h-45.3l-2.2.1H82" class="India-area"/><path id="area__China" fill="#D73C50" fill-opacity=".8" stroke-linecap="round" d="M82 531.2h45.3l2.2-.1h45.3l2.3-.1h15.8l2.3-.1h2.2l2.3-.1 2.2.2 2.3-.1h11.3l2.3-.1H231.4l2.2-.1H247.2l2.3-.1h4.5l2.2-.1h4.6l2.2-.2h2.3l2.3.1 2.2-.1h2.3l2.3-.1 2.2-.1h4.5l2.3-.1 2.3-.1h2.2l2.3-.1h2.3l2.2-.1 2.3-.2h2.2l2.3-.2h2.3l2.2-.1 2.3-.1 2.3-.1 2.2-.1 2.3-.1 2.2-.4 2.3-.1 2.3-.2h4.5l2.3-.2 2.2-.4 2.3-.2h2.2l2.3-.3 2.3-.3 2.2-.3 2.3-.2 2.3-.4 2.2-.1 2.3-.3 2.2-.2 2.3-.4 2.3-.7 2.2-.4 2.3.5 2.3-.6 2.2-.1 2.3-.2h2.2l2.3-.6 2.3-1.1 2.2-.3 2.3-.6 2.3-.6 2.2-.1 2.3-.1 2.3-.2 2.2-.6 2.3-1.3h2.2l2.3-1.2 2.3-.6 2.2-.1 2.3.2 2.3-.5 2.2-1 2.3-.5 2.2-.8 2.3-1 2.3-1.7 2.2-1.1 2.3-.7 2.3-.5 2.2-2.1 2.3-.3 2.2-1.6 2.3-1.2 2.3-3.9 2.2 1.3 2.3-1.3 2.3-1.6 2.2-.4 2.3-1.7 2.2-3 2.3 3.8 2.3.4 2.2-2.8 2.3-1.7 2.3.6 2.2 5.4 2.3-5.7 2.2 4.9 2.3-1.6 2.3-4.9h2.2l2.3-.3 2.3.8 2.2-3.7 2.3.4 2.2-3.3 2.3 3.7 2.3 4.7 2.2 4 2.3-1.7 2.3-3 2.2-1.9 2.3-3.9 2.2-3 2.3 3.2 2.3-2.6 2.2-4.3 2.3-1.4 2.3-.4 2.2-.7 2.3-.8 2.3 9 2.2-4.3 2.3-5.1 2.2-3 2.3 2.4 2.3-7 2.2-4.5 2.3-.7 2.3-1.7 2.2-1.2 2.3-6.6 2.2-4.8 2.3-2.2 2.3-2.6 2.2-4.5 2.3-4.8 2.3.8 2.2-3.1 2.3-4.9 2.2-5 2.3-4.3 2.3-4.9 2.2-2.6 2.3-5.7 2.3-7.7 2.2-10.2 2.3-5 2.2-6.6 2.3-7.2 2.3.8 2.2-1 2.3-8.8 2.3-4.3 2.2-6 2.3-4.7 2.2 1.5 2.3 4.7 2.3 1.4 2.2-.9 2.3-6 2.3-6.3 2.2-2.1 2.3-5 2.2-6.3 2.3-1.5 2.3-2.6 2.2 1.8 2.3 4.1 2.3-1.1 2.2-.8 2.3-4.9 2.2-6.1 2.3-.3 2.3.1 2.2-2.9 2.3-4.4 2.3-1.2 2.2-4.9 2.3-12.9 2.3-7.6 2.2-9.2 2.3-9.3 2.2-8.2 2.3-4.7 2.3 5.9 2.2-15.9 2.3-10.1 2.3-2.7 2.2-3.4 2.3-1.1 2.2 2.8 2.3 1.6 2.3-3.4 2.2-6.7 2.3-2.3 2.3 14.5 2.2-17.4 2.3-.8v130.2l-2.3.1L693 353l-2.3-16.7-2.3-1.9-2.2 2.8-2.3.6-2.3-.4-2.2-1.4-2.3.7-2.2 1.4-2.3-.2-2.3-.3-2.2 7.5-2.3-10.2-2.3-1.3-2.2 2.6-2.3 2.3-2.2 1.6-2.3 3.3-2.3 4.5-2.2.6-2.3.3-2.3 3.4-2.2.7-2.3 1.6-2.3.2-2.2 4.4-2.3 2-2.2-1.3-2.3-1.1-2.3-5.5-2.2-3.2-2.3 2.3-2.3 1.2-2.2 4.3-2.3 3.3-2.2.9-2.3 4.4-2.3 4.4-2.2-.1-2.3-3-2.3-4.4-2.2-1.2-2.3 4.3-2.2 4.4-2.3 2.9-2.3 8.3-2.2-.8-2.3-1-2.3 6.8-2.2 5.9-2.3 3.8-2.2 8-2.3 6.4-2.3 5.3-2.2 3.6-2.3 4.3-2.3 3.9-2.2 4.9-2.3 5-2.2 4.3-2.3 1.8-2.3 4-2.2 2.2-2.3-.5-2.3 1.8-2.2 4.4-2.3 6.3-2.2 1-2.3 1.6-2.3.4-2.2 4.2-2.3 6.8-2.3-2.7-2.2 3.1-2.3 5-2.2 4.5-2.3-8.5-2.3.9-2.2 1-2.3.2-2.3 1.1-2.2 4.1-2.3 2.5-2.3-3.1-2.2 3.1-2.3 3.9-2.2 1.7-2.3 3-2.3 1.6-2.2-4-2.3-4.7-2.3-3.8-2.2 3.3-2.3-.3-2.2 3.6-2.3-.8-2.3.4h-2.2l-2.3 4.7-2.3 1.6-2.2-4.8-2.3 5.6-2.2-5.4-2.3-.6-2.3 1.6-2.2 2.8-2.3-.4-2.3-3.8-2.2 2.9-2.3 1.7-2.2.5-2.3 1.6-2.3 1.2-2.2-1.3-2.3 3.7-2.3 1.2-2.2 1.6-2.3.3-2.2 2.1-2.3.5-2.3.7-2.2 1.1-2.3 1.7-2.3 1-2.2.8-2.3.5-2.2 1-2.3.5-2.3-.2-2.2.1-2.3.6-2.3 1.2h-2.2l-2.3 1.3-2.2.6-2.3.2-2.3.1-2.2.1-2.3.6-2.3.6-2.2.3-2.3 1.1-2.3.6h-2.2l-2.3.2-2.2.1-2.3.6-2.3-.5-2.2.4-2.3.7-2.3.4-2.2.2-2.3.3-2.2.1-2.3.4-2.3.2-2.2.3-2.3.3-2.3.3h-2.2l-2.3.2-2.2.4-2.3.2h-4.5l-2.3.2-2.3.1-2.2.4-2.3.1-2.2.1-2.3.1-2.3.1-2.2.1h-2.3l-2.3.2H297l-2.3.2-2.2.1h-2.3l-2.3.1h-2.2l-2.3.1-2.3.1h-4.5l-2.2.1-2.3.1h-2.3l-2.2.1-2.3-.1H263l-2.2.2h-4.6l-2.2.1h-4.5l-2.3.1H233.6l-2.2.1H217.8l-2.3.1h-11.3l-2.3.1-2.2-.2-2.3.1h-2.2l-2.3.1h-15.8l-2.3.1h-45.3l-2.2.1H82" class="China-area"/><path id="area__Asia-__0028excl__002e-China-and-India__0029" fill="#578145" fill-opacity=".8" stroke-linecap="round" d="M82 531.2h45.3l2.2-.1h45.3l2.3-.1h15.8l2.3-.1h2.2l2.3-.1 2.2.2 2.3-.1h11.3l2.3-.1H231.4l2.2-.1H247.2l2.3-.1h4.5l2.2-.1h4.6l2.2-.2h2.3l2.3.1 2.2-.1h2.3l2.3-.1 2.2-.1h4.5l2.3-.1 2.3-.1h2.2l2.3-.1h2.3l2.2-.1 2.3-.2h2.2l2.3-.2h2.3l2.2-.1 2.3-.1 2.3-.1 2.2-.1 2.3-.1 2.2-.4 2.3-.1 2.3-.2h4.5l2.3-.2 2.2-.4 2.3-.2h2.2l2.3-.3 2.3-.3 2.2-.3 2.3-.2 2.3-.4 2.2-.1 2.3-.4 2.2-.1 2.3-.4 2.3-.7 2.2-.4 2.3.5 2.3-.6 2.2-.1 2.3-.2h2.2l2.3-.6 2.3-1.1 2.2-.4 2.3-.5 2.3-.7 2.2-.1 2.3-.1 2.3-.2 2.2-.6 2.3-1.3h2.2l2.3-1.2 2.3-.7 2.2-.1 2.3.2 2.3-.5 2.2-1 2.3-.6 2.2-.8 2.3-1 2.3-1.8 2.2-1.1 2.3-.7 2.3-.6 2.2-2.1 2.3-.3 2.2-1.7 2.3-1.2 2.3-4 2.2 1.3 2.3-1.3 2.3-1.6 2.2-.5 2.3-1.8 2.2-3.1 2.3 3.8 2.3.5 2.2-2.9 2.3-1.8 2.3.6 2.2 5.3 2.3-5.6 2.2 4.9 2.3-1.7 2.3-5 2.2-.1 2.3-.4 2.3.8 2.2-3.9 2.3.2 2.2-3.3 2.3 3.7 2.3 4.8 2.2 3.9 2.3-1.9 2.3-3.3 2.2-2 2.3-4.2 2.2-3.3 2.3 3.1 2.3-2.8 2.2-4.7 2.3-1.2 2.3.2 2.2-1 2.3-.8 2.3 9.8 2.2-4.4 2.3-5.7 2.2-3.2 2.3 2.8 2.3-6.9 2.2-4.9 2.3-.9 2.3-2 2.2-1.5 2.3-7.2 2.2-5.3 2.3-2.7 2.3-2.8 2.2-4.9 2.3-5.7h2.3l2.2-3.7 2.3-5.7 2.2-5.9 2.3-5.3 2.3-6 2.2-3.9 2.3-7.4 2.3-9.4 2.2-12.6 2.3-6.6 2.2-7.8 2.3-9.3 2.3.4 2.2-.9 2.3-10.8 2.3-5.5 2.2-6.4 2.3-6.1 2.2 1.4 2.3 5 2.3 1.3 2.2-1.6 2.3-7.4 2.3-7.3 2.2-3.2 2.3-5.6 2.2-9.2 2.3-3.1 2.3-4.2 2.2-5.5 2.3 7.8 2.3-2.5 2.2-2.4 2.3-5.1 2.2-7.6 2.3-1.1 2.3 1.4 2.2-5.3 2.3-7.5 2.3-1.9 2.2-6.3 2.3-15.5 2.3-10.1 2.2-10.6 2.3-11 2.2-9.4 2.3-6.1 2.3 5.8 2.2-20 2.3-12.6 2.3-5.8 2.2-3.3 2.3-2.6 2.2.6 2.3.3 2.3-5.8 2.2-8.1 2.3-3 2.3 18.3 2.2-20.2 2.3-2.2v86.3l-2.3.8-2.2 17.4-2.3-14.5-2.3 2.3-2.2 6.7-2.3 3.4-2.3-1.6-2.2-2.8-2.3 1.1-2.2 3.4-2.3 2.7-2.3 10.1-2.2 15.9-2.3-5.9-2.3 4.7-2.2 8.2-2.3 9.3-2.2 9.2-2.3 7.6-2.3 12.9-2.2 4.9-2.3 1.2-2.3 4.4-2.2 2.9-2.3-.1-2.3.3-2.2 6.1-2.3 4.9-2.2.8-2.3 1.1-2.3-4.1-2.2-1.8-2.3 2.6-2.3 1.5-2.2 6.3-2.3 5-2.2 2.1-2.3 6.3-2.3 6-2.2.9-2.3-1.4-2.3-4.7-2.2-1.5-2.3 4.7-2.2 6-2.3 4.3-2.3 8.8-2.2 1-2.3-.8-2.3 7.2-2.2 6.6-2.3 5-2.2 10.2-2.3 7.7-2.3 5.7-2.2 2.6-2.3 4.9-2.3 4.3-2.2 5-2.3 4.9-2.2 3.1-2.3-.8-2.3 4.8-2.2 4.5-2.3 2.6-2.3 2.2-2.2 4.8-2.3 6.6-2.2 1.2-2.3 1.7-2.3.7-2.2 4.5-2.3 7-2.3-2.4-2.2 3-2.3 5.1-2.2 4.3-2.3-9-2.3.8-2.2.7-2.3.4-2.3 1.4-2.2 4.3-2.3 2.6-2.3-3.2-2.2 3-2.3 3.9-2.2 1.9-2.3 3-2.3 1.7-2.2-4-2.3-4.7-2.3-3.7-2.2 3.3-2.3-.4-2.2 3.7-2.3-.8-2.3.3h-2.2l-2.3 4.9-2.3 1.6-2.2-4.9-2.3 5.7-2.2-5.4-2.3-.6-2.3 1.7-2.2 2.8-2.3-.4-2.3-3.8-2.2 3-2.3 1.7-2.2.4-2.3 1.6-2.3 1.3-2.2-1.3-2.3 3.9-2.3 1.2-2.2 1.6-2.3.3-2.2 2.1-2.3.5-2.3.7-2.2 1.1-2.3 1.7-2.3 1-2.2.8-2.3.5-2.2 1-2.3.5-2.3-.2-2.2.1-2.3.6-2.3 1.2h-2.2l-2.3 1.3-2.2.6-2.3.2-2.3.1-2.2.1-2.3.6-2.3.6-2.2.3-2.3 1.1-2.3.6h-2.2l-2.3.2-2.2.1-2.3.6-2.3-.5-2.2.4-2.3.7-2.3.4-2.2.2-2.3.3-2.2.1-2.3.4-2.3.2-2.2.3-2.3.3-2.3.3h-2.2l-2.3.2-2.2.4-2.3.2h-4.5l-2.3.2-2.3.1-2.2.4-2.3.1-2.2.1-2.3.1-2.3.1-2.2.1h-2.3l-2.3.2H297l-2.3.2-2.2.1h-2.3l-2.3.1h-2.2l-2.3.1-2.3.1h-4.5l-2.2.1-2.3.1h-2.3l-2.2.1-2.3-.1H263l-2.2.2h-4.6l-2.2.1h-4.5l-2.3.1H233.6l-2.2.1H217.8l-2.3.1h-11.3l-2.3.1-2.2-.2-2.3.1h-2.2l-2.3.1h-15.8l-2.3.1h-45.3l-2.2.1H82" class="Asia-__0028excl__002e-China-and-India__0029-area"/><path id="area__Oceania" fill="#BC8E5A" fill-opacity=".8" stroke-linecap="round" d="M82 531.2h45.3l2.2-.1h45.3l2.3-.1h15.8l2.3-.1h2.2l2.3-.1 2.2.2 2.3-.1h11.3l2.3-.1H231.4l2.2-.1H247.2l2.3-.1h4.5l2.2-.1h4.6l2.2-.2h2.3l2.3.1 2.2-.1h2.3l2.3-.1 2.2-.1h4.5l2.3-.1 2.3-.1h2.2l2.3-.1h2.3l2.2-.1 2.3-.2h2.2l2.3-.2h2.3l2.2-.1 2.3-.1 2.3-.1 2.2-.1 2.3-.1 2.2-.4 2.3-.1 2.3-.2h4.5l2.3-.2 2.2-.4 2.3-.2 2.2-.1 2.3-.2 2.3-.4 2.2-.2 2.3-.2 2.3-.4 2.2-.1 2.3-.4 2.2-.1 2.3-.4 2.3-.7 2.2-.4 2.3.5 2.3-.7 2.2-.1 2.3-.1 2.2-.1 2.3-.5 2.3-1.2 2.2-.3 2.3-.6 2.3-.6 2.2-.2 2.3-.1 2.3-.1 2.2-.6 2.3-1.3 2.2-.1 2.3-1.2 2.3-.7 2.2-.1 2.3.2 2.3-.5 2.2-1 2.3-.6 2.2-.8 2.3-1 2.3-1.8 2.2-1.1 2.3-.7 2.3-.6 2.2-2.2 2.3-.3 2.2-1.6 2.3-1.3 2.3-4 2.2 1.3 2.3-1.3 2.3-1.7 2.2-.5 2.3-1.8 2.2-3.1 2.3 3.8 2.3.5 2.2-2.9 2.3-1.8 2.3.6 2.2 5.3 2.3-5.6 2.2 4.9 2.3-1.7 2.3-5 2.2-.1 2.3-.5 2.3.8 2.2-3.9 2.3.2 2.2-3.3 2.3 3.8 2.3 4.8 2.2 3.9 2.3-1.9 2.3-3.3 2.2-2.1 2.3-4.2 2.2-3.3 2.3 3 2.3-2.8 2.2-4.6 2.3-1.3 2.3.1 2.2-.9 2.3-.9 2.3 9.9 2.2-4.5 2.3-5.7 2.2-3.2 2.3 2.8 2.3-7.1 2.2-4.9 2.3-.9 2.3-2 2.2-1.6 2.3-7.2 2.2-5.4 2.3-2.7 2.3-2.8 2.2-4.9 2.3-5.8 2.3-.1 2.2-3.6 2.3-5.8 2.2-6.1 2.3-5.4 2.3-6 2.2-4 2.3-7.4 2.3-9.6 2.2-12.7 2.3-6.6 2.2-7.8 2.3-9.6 2.3.4 2.2-.9 2.3-10.8 2.3-5.7 2.2-6.4 2.3-6.2 2.2 1.3 2.3 4.9 2.3 1.3 2.2-1.6 2.3-7.4 2.3-7.5 2.2-3.2 2.3-5.7 2.2-9.3 2.3-3.3 2.3-4.4 2.2-5.5 2.3 7.7 2.3-2.6 2.2-2.4 2.3-5.2 2.2-7.7 2.3-1.3 2.3 1.2 2.2-5.4 2.3-7.5 2.3-2.1 2.2-6.3 2.3-15.6 2.3-10.3 2.2-10.7 2.3-11 2.2-9.6 2.3-6 2.3 5.7 2.2-19.9 2.3-12.6 2.3-5.9 2.2-3.2 2.3-2.6 2.2.5 2.3.2 2.3-5.8 2.2-8.1 2.3-3.1 2.3 18.6 2.2-20.1 2.3-2.2v5l-2.3 2.2-2.2 20.2-2.3-18.3-2.3 3-2.2 8.1-2.3 5.8-2.3-.3-2.2-.6-2.3 2.6-2.2 3.3-2.3 5.8-2.3 12.6-2.2 20-2.3-5.8-2.3 6.1-2.2 9.4-2.3 11-2.2 10.6-2.3 10.1-2.3 15.5-2.2 6.3-2.3 1.9-2.3 7.5-2.2 5.3-2.3-1.4-2.3 1.1-2.2 7.6-2.3 5.1-2.2 2.4-2.3 2.5-2.3-7.8-2.2 5.5-2.3 4.2-2.3 3.1-2.2 9.2-2.3 5.6-2.2 3.2-2.3 7.3-2.3 7.4-2.2 1.6-2.3-1.3-2.3-5-2.2-1.4-2.3 6.1-2.2 6.4-2.3 5.5-2.3 10.8-2.2.9-2.3-.4-2.3 9.3-2.2 7.8-2.3 6.6-2.2 12.6-2.3 9.4-2.3 7.4-2.2 3.9-2.3 6-2.3 5.3-2.2 5.9-2.3 5.7-2.2 3.7h-2.3l-2.3 5.7-2.2 4.9-2.3 2.8-2.3 2.7-2.2 5.3-2.3 7.2-2.2 1.5-2.3 2-2.3.9-2.2 4.9-2.3 6.9-2.3-2.8-2.2 3.2-2.3 5.7-2.2 4.4-2.3-9.8-2.3.8-2.2 1-2.3-.2-2.3 1.2-2.2 4.7-2.3 2.8-2.3-3.1-2.2 3.3-2.3 4.2-2.2 2-2.3 3.3-2.3 1.9-2.2-3.9-2.3-4.8-2.3-3.7-2.2 3.3-2.3-.2-2.2 3.9-2.3-.8-2.3.4-2.2.1-2.3 5-2.3 1.7-2.2-4.9-2.3 5.6-2.2-5.3-2.3-.6-2.3 1.8-2.2 2.9-2.3-.5-2.3-3.8-2.2 3.1-2.3 1.8-2.2.5-2.3 1.6-2.3 1.3-2.2-1.3-2.3 4-2.3 1.2-2.2 1.7-2.3.3-2.2 2.1-2.3.6-2.3.7-2.2 1.1-2.3 1.8-2.3 1-2.2.8-2.3.6-2.2 1-2.3.5-2.3-.2-2.2.1-2.3.7-2.3 1.2h-2.2L392 519l-2.2.6-2.3.2-2.3.1-2.2.1-2.3.7-2.3.5-2.2.4-2.3 1.1-2.3.6h-2.2l-2.3.2-2.2.1-2.3.6-2.3-.5-2.2.4-2.3.7-2.3.4-2.2.1-2.3.4-2.2.1-2.3.4-2.3.2-2.2.3-2.3.3-2.3.3h-2.2l-2.3.2-2.2.4-2.3.2h-4.5l-2.3.2-2.3.1-2.2.4-2.3.1-2.2.1-2.3.1-2.3.1-2.2.1h-2.3l-2.3.2H297l-2.3.2-2.2.1h-2.3l-2.3.1h-2.2l-2.3.1-2.3.1h-4.5l-2.2.1-2.3.1h-2.3l-2.2.1-2.3-.1H263l-2.2.2h-4.6l-2.2.1h-4.5l-2.3.1H233.6l-2.2.1H217.8l-2.3.1h-11.3l-2.3.1-2.2-.2-2.3.1h-2.2l-2.3.1h-15.8l-2.3.1h-45.3l-2.2.1H82" class="Oceania-area"/><path id="area__International-shipping" fill="#A46A62" fill-opacity=".8" stroke-linecap="round" d="M82 531.2h45.3l2.2-.1h45.3l2.3-.1h15.8l2.3-.1h2.2l2.3-.1 2.2.2 2.3-.1h11.3l2.3-.1H231.4l2.2-.1H247.2l2.3-.1h4.5l2.2-.1h4.6l2.2-.2h2.3l2.3.1 2.2-.1h2.3l2.3-.1 2.2-.1h4.5l2.3-.1 2.3-.1h2.2l2.3-.1h2.3l2.2-.1 2.3-.2h2.2l2.3-.2h2.3l2.2-.1 2.3-.1 2.3-.1 2.2-.1 2.3-.1 2.2-.4 2.3-.1 2.3-.2h4.5l2.3-.2 2.2-.4 2.3-.2 2.2-.1 2.3-.2 2.3-.4 2.2-.2 2.3-.2 2.3-.4 2.2-.1 2.3-.4 2.2-.1 2.3-.4 2.3-.7 2.2-.4 2.3.5 2.3-.7 2.2-.1 2.3-.1 2.2-.1 2.3-.5 2.3-1.2 2.2-.3 2.3-.6 2.3-.6 2.2-.2 2.3-.1 2.3-.1 2.2-.6 2.3-1.3 2.2-.1 2.3-1.2 2.3-.7 2.2-.1 2.3.2 2.3-.5 2.2-1 2.3-.6 2.2-.8 2.3-1 2.3-1.8 2.2-1.1 2.3-.7 2.3-.6 2.2-2.2 2.3-.3 2.2-1.6 2.3-1.3 2.3-4 2.2 1.3 2.3-1.3 2.3-1.7 2.2-.5 2.3-1.8 2.2-3.1 2.3 3.8 2.3.5 2.2-2.9 2.3-1.8 2.3.6 2.2 5.3 2.3-5.6 2.2 4.9 2.3-1.7 2.3-5 2.2-.1 2.3-.5 2.3.8 2.2-3.9 2.3.2 2.2-3.3 2.3 3.8 2.3 4.8 2.2 3.9 2.3-1.9 2.3-3.3 2.2-2.1 2.3-4.2 2.2-3.3 2.3 3 2.3-2.8 2.2-4.6 2.3-1.3 2.3.1 2.2-.9 2.3-.9 2.3 9.9 2.2-4.5 2.3-5.7 2.2-3.2 2.3 2.8 2.3-8.5 2.2-5.2 2.3-1 2.3-2 2.2-1.6 2.3-7.5 2.2-5.5 2.3-2.9 2.3-2.7 2.2-4.9 2.3-6.1 2.3-.3 2.2-3.7 2.3-5.9 2.2-6.4 2.3-5.5 2.3-6.2 2.2-4.2 2.3-7.5 2.3-9.8 2.2-12.8 2.3-6.8 2.2-8.1 2.3-9.9 2.3.8 2.2-.5 2.3-10.6 2.3-5.7 2.2-6.5 2.3-6.1 2.2 1.4 2.3 5.3 2.3 1.7 2.2-1.3 2.3-7.4 2.3-7.6 2.2-3.4 2.3-6.2 2.2-9.4 2.3-3.3 2.3-4.3 2.2-5.4 2.3 7.4 2.3-2.6 2.2-2.5 2.3-5.4 2.2-8.1 2.3-1.5 2.3 1 2.2-5.6 2.3-7.6 2.3-2 2.2-6.3 2.3-15.9 2.3-10.8 2.2-10.8 2.3-11.4 2.2-10.1 2.3-6.1 2.3 6.1 2.2-20.5 2.3-12.7 2.3-5.5 2.2-3.2 2.3-2.7 2.2.3 2.3.3 2.3-6.2 2.2-8 2.3-3 2.3 19.1 2.2-20.4 2.3-2.2v7.1l-2.3 2.2-2.2 20.1-2.3-18.6-2.3 3.1-2.2 8.1-2.3 5.8-2.3-.2-2.2-.5-2.3 2.6-2.2 3.2-2.3 5.9-2.3 12.6-2.2 19.9-2.3-5.7-2.3 6-2.2 9.6-2.3 11-2.2 10.7-2.3 10.3-2.3 15.6-2.2 6.3-2.3 2.1-2.3 7.5-2.2 5.4-2.3-1.2-2.3 1.3-2.2 7.7-2.3 5.2-2.2 2.4-2.3 2.6-2.3-7.7-2.2 5.5-2.3 4.4-2.3 3.3-2.2 9.3-2.3 5.7-2.2 3.2-2.3 7.5-2.3 7.4-2.2 1.6-2.3-1.3-2.3-4.9-2.2-1.3-2.3 6.2-2.2 6.4-2.3 5.7-2.3 10.8-2.2.9-2.3-.4-2.3 9.6-2.2 7.8-2.3 6.6-2.2 12.7-2.3 9.6-2.3 7.4-2.2 4-2.3 6-2.3 5.4-2.2 6.1-2.3 5.8-2.2 3.6-2.3.1-2.3 5.8-2.2 4.9-2.3 2.8-2.3 2.7-2.2 5.4-2.3 7.2-2.2 1.6-2.3 2-2.3.9-2.2 4.9-2.3 7.1-2.3-2.8-2.2 3.2-2.3 5.7-2.2 4.5-2.3-9.9-2.3.9-2.2.9-2.3-.1-2.3 1.3-2.2 4.6-2.3 2.8-2.3-3-2.2 3.3-2.3 4.2-2.2 2.1-2.3 3.3-2.3 1.9-2.2-3.9-2.3-4.8-2.3-3.8-2.2 3.3-2.3-.2-2.2 3.9-2.3-.8-2.3.5-2.2.1-2.3 5-2.3 1.7-2.2-4.9-2.3 5.6-2.2-5.3-2.3-.6-2.3 1.8-2.2 2.9-2.3-.5-2.3-3.8-2.2 3.1-2.3 1.8-2.2.5-2.3 1.7-2.3 1.3-2.2-1.3-2.3 4-2.3 1.3-2.2 1.6-2.3.3-2.2 2.2-2.3.6-2.3.7-2.2 1.1-2.3 1.8-2.3 1-2.2.8-2.3.6-2.2 1-2.3.5-2.3-.2-2.2.1-2.3.7-2.3 1.2-2.2.1-2.3 1.3-2.2.6-2.3.1-2.3.1-2.2.2-2.3.6-2.3.6-2.2.3-2.3 1.2-2.3.5-2.2.1-2.3.1-2.2.1-2.3.7-2.3-.5-2.2.4-2.3.7-2.3.4-2.2.1-2.3.4-2.2.1-2.3.4-2.3.2-2.2.2-2.3.4-2.3.2-2.2.1-2.3.2-2.2.4-2.3.2h-4.5l-2.3.2-2.3.1-2.2.4-2.3.1-2.2.1-2.3.1-2.3.1-2.2.1h-2.3l-2.3.2H297l-2.3.2-2.2.1h-2.3l-2.3.1h-2.2l-2.3.1-2.3.1h-4.5l-2.2.1-2.3.1h-2.3l-2.2.1-2.3-.1H263l-2.2.2h-4.6l-2.2.1h-4.5l-2.3.1H233.6l-2.2.1H217.8l-2.3.1h-11.3l-2.3.1-2.2-.2-2.3.1h-2.2l-2.3.1h-15.8l-2.3.1h-45.3l-2.2.1H82" class="International-shipping-area"/><path id="area__International-aviation" fill="#8C4569" fill-opacity=".8" stroke-linecap="round" d="M82 531.2h45.3l2.2-.1h45.3l2.3-.1h15.8l2.3-.1h2.2l2.3-.1 2.2.2 2.3-.1h11.3l2.3-.1H231.4l2.2-.1H247.2l2.3-.1h4.5l2.2-.1h4.6l2.2-.2h2.3l2.3.1 2.2-.1h2.3l2.3-.1 2.2-.1h4.5l2.3-.1 2.3-.1h2.2l2.3-.1h2.3l2.2-.1 2.3-.2h2.2l2.3-.2h2.3l2.2-.1 2.3-.1 2.3-.1 2.2-.1 2.3-.1 2.2-.4 2.3-.1 2.3-.2h4.5l2.3-.2 2.2-.4 2.3-.2 2.2-.1 2.3-.2 2.3-.4 2.2-.2 2.3-.2 2.3-.4 2.2-.1 2.3-.4 2.2-.1 2.3-.4 2.3-.7 2.2-.4 2.3.5 2.3-.7 2.2-.1 2.3-.1 2.2-.1 2.3-.5 2.3-1.2 2.2-.3 2.3-.6 2.3-.6 2.2-.2 2.3-.1 2.3-.1 2.2-.6 2.3-1.3 2.2-.1 2.3-1.2 2.3-.7 2.2-.1 2.3.2 2.3-.5 2.2-1 2.3-.6 2.2-.8 2.3-1 2.3-1.8 2.2-1.1 2.3-.7 2.3-.6 2.2-2.2 2.3-.3 2.2-1.6 2.3-1.3 2.3-4 2.2 1.3 2.3-1.3 2.3-1.7 2.2-.5 2.3-1.8 2.2-3.1 2.3 3.8 2.3.5 2.2-2.9 2.3-1.8 2.3.6 2.2 5.3 2.3-5.6 2.2 4.9 2.3-1.7 2.3-5 2.2-.1 2.3-.5 2.3.8 2.2-3.9 2.3.2 2.2-3.3 2.3 3.8 2.3 4.8 2.2 3.9 2.3-1.9 2.3-3.3 2.2-2.1 2.3-4.2 2.2-3.3 2.3 3 2.3-2.8 2.2-4.6 2.3-1.3 2.3.1 2.2-.9 2.3-.9 2.3 9.9 2.2-4.5 2.3-5.7 2.2-3.2 2.3 2.8 2.3-8.6 2.2-5.1 2.3-1 2.3-2.1 2.2-1.6 2.3-7.5 2.2-5.5 2.3-2.9 2.3-2.7 2.2-5 2.3-6 2.3-.4 2.2-3.8 2.3-5.9 2.2-6.4 2.3-5.5 2.3-6.3 2.2-4.3 2.3-7.6 2.3-9.8 2.2-13 2.3-6.9 2.2-8.2 2.3-9.9 2.3.8 2.2-.4 2.3-10.7 2.3-5.8 2.2-6.5 2.3-6.2 2.2 1.4 2.3 5.3 2.3 1.7 2.2-1.3 2.3-7.5 2.3-7.6 2.2-3.5 2.3-7.3 2.2-9.5 2.3-3.4 2.3-4.3 2.2-5.4 2.3 7.5 2.3-2.6 2.2-2.7 2.3-5.6 2.2-8.3 2.3-1.7 2.3.8 2.2-5.8 2.3-7.6 2.3-2 2.2-6.5 2.3-16 2.3-11.1 2.2-11.1 2.3-11.6 2.2-10.2 2.3-6.2 2.3 6.2 2.2-20.7 2.3-12.9 2.3-5.7 2.2-3.4 2.3-2.7 2.2.1h2.3l2.3-6.5 2.2-8.4 2.3-3.1 2.3 23.2 2.2-20.7 2.3-3.8v4.9l-2.3 2.2-2.2 20.4-2.3-19.1-2.3 3-2.2 8-2.3 6.2-2.3-.3-2.2-.3-2.3 2.7-2.2 3.2-2.3 5.5-2.3 12.7-2.2 20.5-2.3-6.1-2.3 6.1-2.2 10.1-2.3 11.4-2.2 10.8-2.3 10.8-2.3 15.9-2.2 6.3-2.3 2-2.3 7.6-2.2 5.6-2.3-1-2.3 1.5-2.2 8.1-2.3 5.4-2.2 2.5-2.3 2.6-2.3-7.4-2.2 5.4-2.3 4.3-2.3 3.3-2.2 9.4-2.3 6.2-2.2 3.4-2.3 7.6-2.3 7.4-2.2 1.3-2.3-1.7-2.3-5.3-2.2-1.4-2.3 6.1-2.2 6.5-2.3 5.7-2.3 10.6-2.2.5-2.3-.8-2.3 9.9-2.2 8.1-2.3 6.8-2.2 12.8-2.3 9.8-2.3 7.5-2.2 4.2-2.3 6.2-2.3 5.5-2.2 6.4-2.3 5.9-2.2 3.7-2.3.3-2.3 6.1-2.2 4.9-2.3 2.7-2.3 2.9-2.2 5.5-2.3 7.5-2.2 1.6-2.3 2-2.3 1-2.2 5.2-2.3 8.5-2.3-2.8-2.2 3.2-2.3 5.7-2.2 4.5-2.3-9.9-2.3.9-2.2.9-2.3-.1-2.3 1.3-2.2 4.6-2.3 2.8-2.3-3-2.2 3.3-2.3 4.2-2.2 2.1-2.3 3.3-2.3 1.9-2.2-3.9-2.3-4.8-2.3-3.8-2.2 3.3-2.3-.2-2.2 3.9-2.3-.8-2.3.5-2.2.1-2.3 5-2.3 1.7-2.2-4.9-2.3 5.6-2.2-5.3-2.3-.6-2.3 1.8-2.2 2.9-2.3-.5-2.3-3.8-2.2 3.1-2.3 1.8-2.2.5-2.3 1.7-2.3 1.3-2.2-1.3-2.3 4-2.3 1.3-2.2 1.6-2.3.3-2.2 2.2-2.3.6-2.3.7-2.2 1.1-2.3 1.8-2.3 1-2.2.8-2.3.6-2.2 1-2.3.5-2.3-.2-2.2.1-2.3.7-2.3 1.2-2.2.1-2.3 1.3-2.2.6-2.3.1-2.3.1-2.2.2-2.3.6-2.3.6-2.2.3-2.3 1.2-2.3.5-2.2.1-2.3.1-2.2.1-2.3.7-2.3-.5-2.2.4-2.3.7-2.3.4-2.2.1-2.3.4-2.2.1-2.3.4-2.3.2-2.2.2-2.3.4-2.3.2-2.2.1-2.3.2-2.2.4-2.3.2h-4.5l-2.3.2-2.3.1-2.2.4-2.3.1-2.2.1-2.3.1-2.3.1-2.2.1h-2.3l-2.3.2H297l-2.3.2-2.2.1h-2.3l-2.3.1h-2.2l-2.3.1-2.3.1h-4.5l-2.2.1-2.3.1h-2.3l-2.2.1-2.3-.1H263l-2.2.2h-4.6l-2.2.1h-4.5l-2.3.1H233.6l-2.2.1H217.8l-2.3.1h-11.3l-2.3.1-2.2-.2-2.3.1h-2.2l-2.3.1h-15.8l-2.3.1h-45.3l-2.2.1H82" class="International-aviation-area"/><path id="border__Europe-__0028excl__002e-EU-27__0029" fill="none" stroke="#814422" stroke-linecap="round" stroke-opacity=".7" stroke-width=".5" d="M82 531.2h45.3l2.2-.1h49.8l2.3-.1 2.2.1h4.6l2.2-.1h2.3l2.3-.1h2.2l2.3.1h6.8l2.2-.1H231.4l2.2-.1H247.2l2.3-.1h11.3l2.2-.2 2.3.1h4.5l2.3-.1h2.3l2.2-.1h2.3l2.2.1 2.3-.1h4.5l2.3-.1h2.3l2.2-.1h4.5l2.3-.1h2.3l2.2-.1 2.3-.1 2.3.1h4.5l2.2-.3 2.3.1 2.3-.1h4.5l2.3-.1 2.2-.2 2.3-.1h2.2l2.3-.1 2.3-.1 2.2-.2 2.3-.1h4.5l2.3-.1 2.2-.1 2.3-.1 2.3-.2 2.2-.1 2.3.1 2.3-.2h2.2l2.3-.1 2.2.1 2.3-.1 2.3-.3 2.2-.1 2.3-.1 2.3-.2 2.2.1 2.3.1h2.3l2.2-.1 2.3-.2 2.2-.1 2.3-.2 2.3-.1 2.2.1 2.3.4 2.3-.6 2.2-.1 2.3-.1 2.2-.2 2.3-.1 2.3-.4 2.2-.1 2.3.1 2.3-.2h2.2l2.3-.1h2.2l2.3-.3 2.3-.4 2.2.2 2.3-.1 2.3-.1 2.2-.1 2.3.1 2.2-.6 2.3.3h2.3l2.2-.2 2.3.2 2.3 1 2.2.1 2.3-.2 2.2 1.8 2.3-1.4 2.3-.4 2.2-.3 2.3.3 2.3 2.1 2.2-2.7 2.3.2 2.2-.4 2.3-.1h4.5l2.3-.2 2.3-.9 2.2-.4 2.3-.8 2.2-.2h2.3l2.3-.1 2.2-1 2.3.8 2.3 1.9h2.2l2.3-.9 2.3.1 2.2-.8 2.3-1.2 2.2-.5 2.3-.8 2.3-.8 2.2-1.1 2.3-.3 2.3-.6 2.2-.9 2.3-1.5 2.2-1 2.3-1 2.3-.7 2.2-.6 2.3-1 2.3-.5 2.2-.9 2.3-1.3 2.2-1.1 2.3-1.2 2.3-1.1 2.2-.6 2.3-.8 2.3-1.2 2.2-1.6 2.3-1.5 2.2-1.2 2.3-1.3 2.3-.4 2.2-1.3 2.3-1.2 2.3-1 2.2-1.2 2.3-.8 2.2-.5 2.3.8 2.3-.3 2.2-.6 2.3-.2 2.3-3 2.2-.4 2.3.2 2.2-1 2.3.9 2.3-2 2.2 2.6 2.3 5.9 2.3 2.6 2.2 3.9 2.3.7 2.2.5 2.3 1.6 2.3.1 2.2.4 2.3.1 2.3-.8 2.2.4 2.3-.7 2.3-.3 2.2-.1 2.3-1h2.2l2.3-.1 2.3 2.5 2.2-1.5 2.3-.3 2.3-.2 2.2.8 2.3 1.1 2.2.6 2.3.1 2.3-.1 2.2-.5 2.3.4 2.3 1.5 2.2-1.2 2.3 1.8" class="Europe-__0028excl__002e-EU-27__0029-border"/><path id="border__European-Union-__002827__0029" fill="none" stroke="#C05C4B" stroke-linecap="round" stroke-opacity=".7" stroke-width=".5" d="M82 531.2h45.3l2.2-.1h45.3l2.3-.1h15.8l2.3-.1h2.2l2.3-.1 2.2.2 2.3-.1H217.8l2.2-.1H231.4l2.2-.1H249.5l2.2-.1h9.1l2.2-.3 2.3.1h4.5l2.3-.1 2.3-.1 2.2-.1h6.8l2.3-.1h2.2l2.3-.1h2.3l2.2-.1 2.3-.1 2.2-.1 2.3-.1h2.3l2.2-.1 2.3-.1h2.3l2.2-.1h2.3l2.2-.4h2.3l2.3-.2h2.2l2.3-.1 2.3-.1 2.2-.3 2.3-.2 2.2-.1 2.3-.2 2.3-.3 2.2-.2 2.3-.2 2.3-.2h2.2l2.3-.3h2.2l2.3-.4 2.3-.4 2.2-.3 2.3.5 2.3-.6 2.2-.2 2.3.1 2.2-.1 2.3-.2 2.3-.8 2.2-.2 2.3-.3 2.3-.4h6.8l2.2-.3 2.3-.5 2.2-.4 2.3-.5 2.3-.3 2.2.2 2.3.2 2.3-.8 2.2-.3 2.3-.5 2.2-.5 2.3-.4 2.3-.8 2.2-.7 2.3.1h2.3l2.2-.5 2.3-.3 2.2-.4 2.3-.5 2.3-1.7 2.2-.2 2.3-.1 2.3-.2 2.2-.4 2.3-.7 2.2-1.5 2.3 2.2 2.3.9 2.2-.7 2.3.3 2.3 1.6 2.2 2.4 2.3-2.2 2.2 1.4 2.3-1.7 2.3.7 2.2-2.3 2.3.2 2.3 2.4 2.2-4.1 2.3-.1 2.2-1.6 2.3 1.1 2.3 1.3 2.2 1.3 2.3-.5 2.3-1.6 2.2-1 2.3-1.2 2.2-1.9 2.3-.1 2.3-.5 2.2-1.6 2.3 1 2.3 1.7 2.2-.1 2.3 1.3 2.3 7.5 2.2-4.8 2.3-2.9 2.2-1.7 2.3-2.1 2.3-1.6 2.2-2.9 2.3-.9 2.3-.9 2.2-2 2.3-3.1 2.2-2.4 2.3-1.7 2.3-.4 2.2-.9 2.3-2.9 2.3-1.7 2.2-2.6 2.3-3.1 2.2-2.6 2.3-1.6 2.3-2 2.2-1.3 2.3-2.8 2.3-3.4 2.2-3.2 2.3-2.7 2.2-2.6 2.3-3.3 2.3-.2 2.2-.5 2.3-4.3 2.3-.6 2.2-2.7 2.3-2h2.2l2.3 3.2 2.3.7 2.2-.1 2.3-.6 2.3-3.7 2.2-.2 2.3-.2 2.2-.4 2.3.3 2.3-2.4 2.2 3.5 2.3 7.3 2.3 3.3 2.2 4.1 2.3.3 2.2-.6 2.3 2.4 2.3.3 2.2.9 2.3.1 2.3-1.5 2.2.4 2.3-1.7 2.3-.4 2.2.1 2.3-1.1 2.2.5 2.3.8 2.3 5.9 2.2-2.7 2.3.9 2.3.5 2.2 1.8 2.3 2.6h2.2l2.3.1 2.3-.3 2.2.3 2.3 2 2.3 4.6 2.2-3.2 2.3 2.4" class="European-Union-__002827__0029-border"/><path id="border__United-States" fill="none" stroke="#215A9C" stroke-linecap="round" stroke-opacity=".7" stroke-width=".5" d="M82 531.2h45.3l2.2-.1h45.3l2.3-.1h15.8l2.3-.1h2.2l2.3-.1 2.2.2 2.3-.1h11.3l2.3-.1H231.4l2.2-.1H247.2l2.3-.1h4.5l2.2-.1h4.6l2.2-.2h2.3l2.3.1 2.2-.1h2.3l2.3-.1 2.2-.1h4.5l2.3-.1 2.3-.1h2.2l2.3-.1h2.3l2.2-.1 2.3-.2h2.2l2.3-.1 2.3-.1 2.2-.1 2.3-.1 2.3-.1 2.2-.1 2.3-.1 2.2-.4 2.3-.1 2.3-.2h4.5l2.3-.2 2.2-.4 2.3-.2h2.2l2.3-.3 2.3-.3 2.2-.3 2.3-.2 2.3-.3 2.2-.2 2.3-.3 2.2-.2 2.3-.3 2.3-.7 2.2-.5 2.3.5 2.3-.6 2.2-.1 2.3-.1h2.2l2.3-.6 2.3-1.1 2.2-.3 2.3-.6 2.3-.6 2.2-.1 2.3-.1 2.3-.2 2.2-.5 2.3-1.3h2.2l2.3-1.1 2.3-.7 2.2-.1 2.3.2 2.3-.5 2.2-.9 2.3-.5 2.2-.8 2.3-.9 2.3-1.7 2.2-1.1 2.3-.5 2.3-.5 2.2-2 2.3-.2 2.2-1.6 2.3-1 2.3-3.6 2.2 1.4 2.3-1.3 2.3-1.4 2.2-.3 2.3-1.6 2.2-2.7 2.3 3.7 2.3.3 2.2-2.5 2.3-1.4 2.3.7 2.2 5.5 2.3-5.2 2.2 5 2.3-1.8 2.3-4.5 2.2-.1 2.3-.5 2.3.8 2.2-3.7 2.3.3 2.2-3.1 2.3 3.6 2.3 4.3 2.2 3.9 2.3-1.6 2.3-2.6 2.2-1.6 2.3-3.8 2.2-2.8 2.3 3.1 2.3-2.3 2.2-3.9 2.3-.9 2.3-.1 2.2-1 2.3-.6 2.3 8.4 2.2-3.6 2.3-5.5 2.2-2.8 2.3 2.6 2.3-5.9 2.2-3.7 2.3-.2 2.3-1.6 2.2-.6 2.3-5.7 2.2-3.9 2.3-1.5 2.3.6 2.2-1.9 2.3-3.6 2.3-1.5 2.2-3.9 2.3-4.6 2.2-4.2 2.3-3.2 2.3-3.9 2.2-2.8 2.3-4.4 2.3-5.6 2.2-6.7 2.3-2.9 2.2-5 2.3-5.8 2.3 1.7 2.2 1.2 2.3-7.4 2.3-2.3 2.2-3.2 2.3-2.8 2.2 2.2 2.3 4.6 2.3 3.4 2.2.2 2.3-3.3 2.3-3.6 2.2-.2 2.3-2.2 2.2-3 2.3-.5 2.3-2.3 2.2 4.1 2.3 6.1 2.3 2.2 2.2 3 2.3-.4 2.2-2.7 2.3 1.5 2.3-.2 2.2.1 2.3-2.3 2.3-.3 2.2-.1 2.3-2.4 2.3-1.5 2.2-.1 2.3-.3 2.2-.4 2.3 3.3 2.3 10.8 2.2-4.9 2.3 2.4 2.3 2.9 2.2.2 2.3 2.1 2.2 1.7 2.3 1.5 2.3.1 2.2-1.6 2.3 3.4L693 420l2.2-6.9 2.3 2.1" class="United-States-border"/><path id="border__North-America-__0028excl__002e-USA__0029" fill="none" stroke="#143B0D" stroke-linecap="round" stroke-opacity=".7" stroke-width=".5" d="M82 531.2h45.3l2.2-.1h45.3l2.3-.1h15.8l2.3-.1h2.2l2.3-.1 2.2.2 2.3-.1h11.3l2.3-.1H231.4l2.2-.1H247.2l2.3-.1h4.5l2.2-.1h4.6l2.2-.2h2.3l2.3.1 2.2-.1h2.3l2.3-.1 2.2-.1h4.5l2.3-.1 2.3-.1h2.2l2.3-.1h2.3l2.2-.1 2.3-.2h2.2l2.3-.2h2.3l2.2-.1 2.3-.1 2.3-.1 2.2-.1 2.3-.1 2.2-.4 2.3-.1 2.3-.2h4.5l2.3-.2 2.2-.4 2.3-.2h2.2l2.3-.3 2.3-.3 2.2-.3 2.3-.2 2.3-.3 2.2-.2 2.3-.3 2.2-.2 2.3-.4 2.3-.6 2.2-.5 2.3.5 2.3-.6 2.2-.1 2.3-.1 2.2-.1 2.3-.5 2.3-1.2 2.2-.3 2.3-.5 2.3-.7 2.2-.1 2.3-.1 2.3-.2 2.2-.5 2.3-1.3h2.2l2.3-1.2 2.3-.7 2.2-.1 2.3.3 2.3-.5 2.2-.9 2.3-.6 2.2-.7 2.3-1 2.3-1.7 2.2-1.1 2.3-.6 2.3-.5 2.2-2.1 2.3-.2 2.2-1.6 2.3-1.1 2.3-3.7 2.2 1.4 2.3-1.2 2.3-1.5 2.2-.5 2.3-1.7 2.2-2.8 2.3 3.8 2.3.3 2.2-2.7 2.3-1.6 2.3.6 2.2 5.5 2.3-5.6 2.2 4.8 2.3-1.6 2.3-4.6 2.2.1 2.3-.4 2.3.9 2.2-3.6 2.3.3 2.2-3.2 2.3 3.7 2.3 4.6 2.2 3.9 2.3-1.5 2.3-2.8 2.2-1.7 2.3-3.9 2.2-2.8 2.3 3.1 2.3-2.4 2.2-4.1 2.3-1 2.3-.2 2.2-1 2.3-.7 2.3 8.5 2.2-3.8 2.3-5.6 2.2-3 2.3 2.9 2.3-6.1 2.2-3.9 2.3-.1 2.3-1.7 2.2-.7 2.3-5.8 2.2-4.3 2.3-1.4 2.3.5 2.2-2 2.3-3.7 2.3-1.6 2.2-4.1 2.3-4.6 2.2-4.7 2.3-3.3 2.3-4.1 2.2-3.2 2.3-4.7 2.3-5.9 2.2-7.3 2.3-3.2 2.2-5.4 2.3-6.1 2.3 1.5 2.2.9 2.3-7.7 2.3-2.5 2.2-3.6 2.3-3.4 2.2 1.9 2.3 4.7 2.3 3.3 2.2.6 2.3-3.5 2.3-3.7h2.2l2.3-2.6 2.2-3.3 2.3-.9 2.3-2.1 2.2 4.1 2.3 5.8 2.3 2.1 2.2 2.8 2.3-.5 2.2-3 2.3 1 2.3-.5 2.2-.2 2.3-2.8 2.3-.4 2.2-.2 2.3-3 2.3-1.5 2.2-.5 2.3-.4 2.2-.7 2.3 3.5 2.3 11.4 2.2-5.1 2.3 1.9 2.3 2.7 2.2.2 2.3 2.3 2.2 1.6 2.3 1.7 2.3.2 2.2-1.7 2.3 3.2 2.3 12.2 2.2-7.4 2.3 1.4" class="North-America-__0028excl__002e-USA__0029-border"/><path id="border__South-America" fill="none" stroke="#5B3479" stroke-linecap="round" stroke-opacity=".7" stroke-width=".5" d="M82 531.2h45.3l2.2-.1h45.3l2.3-.1h15.8l2.3-.1h2.2l2.3-.1 2.2.2 2.3-.1h11.3l2.3-.1H231.4l2.2-.1H247.2l2.3-.1h4.5l2.2-.1h4.6l2.2-.2h2.3l2.3.1 2.2-.1h2.3l2.3-.1 2.2-.1h4.5l2.3-.1 2.3-.1h2.2l2.3-.1h2.3l2.2-.1 2.3-.2h2.2l2.3-.2h2.3l2.2-.1 2.3-.1 2.3-.1 2.2-.1 2.3-.1 2.2-.4 2.3-.1 2.3-.2h4.5l2.3-.2 2.2-.4 2.3-.2h2.2l2.3-.3 2.3-.3 2.2-.3 2.3-.2 2.3-.3 2.2-.2 2.3-.3 2.2-.2 2.3-.4 2.3-.6 2.2-.5 2.3.5 2.3-.6 2.2-.1 2.3-.1 2.2-.1 2.3-.5 2.3-1.2 2.2-.3 2.3-.5 2.3-.7 2.2-.1 2.3-.1 2.3-.2 2.2-.5 2.3-1.3h2.2l2.3-1.2 2.3-.7 2.2-.1 2.3.2 2.3-.5 2.2-.9 2.3-.5 2.2-.8 2.3-.9 2.3-1.8 2.2-1 2.3-.7 2.3-.5 2.2-2.1 2.3-.2 2.2-1.6 2.3-1.1 2.3-3.7 2.2 1.4 2.3-1.3 2.3-1.5 2.2-.5 2.3-1.7 2.2-2.9 2.3 3.9 2.3.4 2.2-2.7 2.3-1.6 2.3.6 2.2 5.5 2.3-5.7 2.2 4.9 2.3-1.7 2.3-4.7 2.2.1 2.3-.4 2.3.8 2.2-3.6 2.3.4 2.2-3.3 2.3 3.8 2.3 4.6 2.2 3.9 2.3-1.6 2.3-2.9 2.2-1.6 2.3-3.9 2.2-3 2.3 3.2 2.3-2.5 2.2-4 2.3-1.1 2.3-.1 2.2-1.1 2.3-.8 2.3 8.6 2.2-4.6 2.3-4.9 2.2-3.1 2.3 2.9 2.3-6.6 2.2-4.1 2.3-.3 2.3-1.6 2.2-.8 2.3-6.1 2.2-4.4 2.3-1.5 2.3.6 2.2-2.2 2.3-3.7 2.3-1.6 2.2-4.2 2.3-4.7 2.2-4.8 2.3-3.5 2.3-4.2 2.2-3.4 2.3-4.9 2.3-6.1 2.2-7.7 2.3-3.3 2.2-5.6 2.3-6.4 2.3 1.2 2.2 1 2.3-7.8 2.3-2.6 2.2-4 2.3-3.7 2.2 1.7 2.3 4.9 2.3 3.3 2.2.7 2.3-3.6 2.3-3.9 2.2-.3 2.3-2.9 2.2-3.5 2.3-.9 2.3-2.3 2.2 3.9 2.3 5.8 2.3 1.7 2.2 2.7 2.3-.9 2.2-3.4 2.3.5 2.3-1.2h2.2l2.3-2.7 2.3-.2 2.2-.6 2.3-3 2.3-1.9 2.2-.7 2.3-.8 2.2-1.1 2.3 3 2.3 11.7 2.2-6.4 2.3 1.8 2.3 2 2.2-.5 2.3 2 2.2 2.1 2.3 2.2 2.3.4 2.2-1 2.3 3.2 2.3 13.4 2.2-8.8 2.3 1.4" class="South-America-border"/><path id="border__Africa" fill="none" stroke="#006E69" stroke-linecap="round" stroke-opacity=".7" stroke-width=".5" d="M82 531.2h45.3l2.2-.1h45.3l2.3-.1h15.8l2.3-.1h2.2l2.3-.1 2.2.2 2.3-.1h11.3l2.3-.1H231.4l2.2-.1H247.2l2.3-.1h4.5l2.2-.1h4.6l2.2-.2h2.3l2.3.1 2.2-.1h2.3l2.3-.1 2.2-.1h4.5l2.3-.1 2.3-.1h2.2l2.3-.1h2.3l2.2-.1 2.3-.2h2.2l2.3-.2h2.3l2.2-.1 2.3-.1 2.3-.1 2.2-.1 2.3-.1 2.2-.4 2.3-.1 2.3-.2h4.5l2.3-.2 2.2-.4 2.3-.2h2.2l2.3-.3 2.3-.3 2.2-.3 2.3-.2 2.3-.3 2.2-.2 2.3-.3 2.2-.2 2.3-.4 2.3-.6 2.2-.5 2.3.5 2.3-.6 2.2-.1 2.3-.1 2.2-.1 2.3-.5 2.3-1.2 2.2-.3 2.3-.5 2.3-.7 2.2-.1 2.3-.1 2.3-.2 2.2-.5 2.3-1.3h2.2l2.3-1.2 2.3-.7 2.2-.1 2.3.2 2.3-.5 2.2-.9 2.3-.5 2.2-.8 2.3-1 2.3-1.7 2.2-1.1 2.3-.6 2.3-.6 2.2-2.1 2.3-.2 2.2-1.6 2.3-1.2 2.3-3.7 2.2 1.4 2.3-1.3 2.3-1.5 2.2-.5 2.3-1.7 2.2-2.9 2.3 3.8 2.3.5 2.2-2.8 2.3-1.6 2.3.6 2.2 5.5 2.3-5.7 2.2 4.9 2.3-1.6 2.3-4.8 2.2.1 2.3-.4 2.3.8 2.2-3.6 2.3.3 2.2-3.3 2.3 3.8 2.3 4.6 2.2 4 2.3-1.6 2.3-2.9 2.2-1.8 2.3-3.9 2.2-3 2.3 3.2 2.3-2.5 2.2-4.1 2.3-1.1 2.3-.2 2.2-1 2.3-.9 2.3 8.5 2.2-4.5 2.3-5 2.2-3.1 2.3 2.8 2.3-6.8 2.2-4.2 2.3-.3 2.3-1.6 2.2-1 2.3-6.2 2.2-4.4 2.3-1.6 2.3.5 2.2-2.2 2.3-3.8 2.3-1.7 2.2-4.2 2.3-4.8 2.2-5 2.3-3.7 2.3-4.3 2.2-3.6 2.3-5.1 2.3-6.4 2.2-7.9 2.3-3.7 2.2-5.8 2.3-6.7 2.3 1.1 2.2 1 2.3-8.2 2.3-2.8 2.2-4.3 2.3-4.1 2.2 1.3 2.3 4.7 2.3 3.1 2.2.4 2.3-4.2 2.3-4.1 2.2-.5 2.3-3 2.2-3.9 2.3-.6 2.3-1.9 2.2 3.7 2.3 5.9 2.3 1.3 2.2 1.7 2.3-1.4 2.2-3.7 2.3.2 2.3-1.4 2.2.2 2.3-3.2h2.3l2.2-.4 2.3-4 2.3-2.5 2.2-1 2.3-1 2.2-1.5 2.3 2.4 2.3 11.7 2.2-6.9 2.3 1.4 2.3 2 2.2-.6 2.3 1.1 2.2 2.3 2.3 1.8 2.3.2 2.2-.8 2.3 2.1 2.3 14.5 2.2-9.7 2.3 1.6" class="Africa-border"/><path id="border__India" fill="none" stroke="#722830" stroke-linecap="round" stroke-opacity=".7" stroke-width=".5" d="M82 531.2h45.3l2.2-.1h45.3l2.3-.1h15.8l2.3-.1h2.2l2.3-.1 2.2.2 2.3-.1h11.3l2.3-.1H231.4l2.2-.1H247.2l2.3-.1h4.5l2.2-.1h4.6l2.2-.2h2.3l2.3.1 2.2-.1h2.3l2.3-.1 2.2-.1h4.5l2.3-.1 2.3-.1h2.2l2.3-.1h2.3l2.2-.1 2.3-.2h2.2l2.3-.2h2.3l2.2-.1 2.3-.1 2.3-.1 2.2-.1 2.3-.1 2.2-.4 2.3-.1 2.3-.2h4.5l2.3-.2 2.2-.4 2.3-.2h2.2l2.3-.3 2.3-.3 2.2-.3 2.3-.2 2.3-.4 2.2-.1 2.3-.3 2.2-.2 2.3-.4 2.3-.7 2.2-.4 2.3.5 2.3-.6 2.2-.1 2.3-.2h2.2l2.3-.6 2.3-1.1 2.2-.3 2.3-.6 2.3-.6 2.2-.1 2.3-.1 2.3-.2 2.2-.6 2.3-1.3h2.2l2.3-1.2 2.3-.6 2.2-.1 2.3.2 2.3-.5 2.2-1 2.3-.5 2.2-.8 2.3-1 2.3-1.7 2.2-1.1 2.3-.7 2.3-.5 2.2-2.1 2.3-.3 2.2-1.6 2.3-1.2 2.3-3.7 2.2 1.3 2.3-1.2 2.3-1.6 2.2-.5 2.3-1.7 2.2-2.9 2.3 3.8 2.3.4 2.2-2.8 2.3-1.6 2.3.6 2.2 5.4 2.3-5.6 2.2 4.8 2.3-1.6 2.3-4.7h2.2l2.3-.4 2.3.8 2.2-3.6 2.3.3 2.2-3.3 2.3 3.8 2.3 4.7 2.2 4 2.3-1.6 2.3-3 2.2-1.7 2.3-3.9 2.2-3.1 2.3 3.1 2.3-2.5 2.2-4.1 2.3-1.1 2.3-.2 2.2-1 2.3-.9 2.3 8.5 2.2-4.5 2.3-5 2.2-3.1 2.3 2.7 2.3-6.8 2.2-4.2 2.3-.4 2.3-1.6 2.2-1 2.3-6.3 2.2-4.4 2.3-1.8 2.3.5 2.2-2.2 2.3-4 2.3-1.8 2.2-4.3 2.3-5 2.2-4.9 2.3-3.9 2.3-4.3 2.2-3.6 2.3-5.3 2.3-6.4 2.2-8 2.3-3.8 2.2-5.9 2.3-6.8 2.3 1 2.2.8 2.3-8.3 2.3-2.9 2.2-4.4 2.3-4.3 2.2 1.2 2.3 4.4 2.3 3 2.2.1 2.3-4.4 2.3-4.4 2.2-.9 2.3-3.3 2.2-4.3 2.3-1.2 2.3-2.3 2.2 3.2 2.3 5.5 2.3 1.1 2.2 1.3 2.3-2 2.2-4.4 2.3-.2 2.3-1.6 2.2-.7 2.3-3.4 2.3-.3 2.2-.6 2.3-4.5 2.3-3.3 2.2-1.6 2.3-2.3 2.2-2.6 2.3 1.3 2.3 10.2 2.2-7.5 2.3.3 2.3.2 2.2-1.4 2.3-.7 2.2 1.4 2.3.4 2.3-.6 2.2-2.8 2.3 1.9L693 353l2.2-12.6 2.3-.1" class="India-border"/><path id="border__China" fill="none" stroke="#B43243" stroke-linecap="round" stroke-opacity=".7" stroke-width=".5" d="M82 531.2h45.3l2.2-.1h45.3l2.3-.1h15.8l2.3-.1h2.2l2.3-.1 2.2.2 2.3-.1h11.3l2.3-.1H231.4l2.2-.1H247.2l2.3-.1h4.5l2.2-.1h4.6l2.2-.2h2.3l2.3.1 2.2-.1h2.3l2.3-.1 2.2-.1h4.5l2.3-.1 2.3-.1h2.2l2.3-.1h2.3l2.2-.1 2.3-.2h2.2l2.3-.2h2.3l2.2-.1 2.3-.1 2.3-.1 2.2-.1 2.3-.1 2.2-.4 2.3-.1 2.3-.2h4.5l2.3-.2 2.2-.4 2.3-.2h2.2l2.3-.3 2.3-.3 2.2-.3 2.3-.2 2.3-.4 2.2-.1 2.3-.3 2.2-.2 2.3-.4 2.3-.7 2.2-.4 2.3.5 2.3-.6 2.2-.1 2.3-.2h2.2l2.3-.6 2.3-1.1 2.2-.3 2.3-.6 2.3-.6 2.2-.1 2.3-.1 2.3-.2 2.2-.6 2.3-1.3h2.2l2.3-1.2 2.3-.6 2.2-.1 2.3.2 2.3-.5 2.2-1 2.3-.5 2.2-.8 2.3-1 2.3-1.7 2.2-1.1 2.3-.7 2.3-.5 2.2-2.1 2.3-.3 2.2-1.6 2.3-1.2 2.3-3.9 2.2 1.3 2.3-1.3 2.3-1.6 2.2-.4 2.3-1.7 2.2-3 2.3 3.8 2.3.4 2.2-2.8 2.3-1.7 2.3.6 2.2 5.4 2.3-5.7 2.2 4.9 2.3-1.6 2.3-4.9h2.2l2.3-.3 2.3.8 2.2-3.7 2.3.4 2.2-3.3 2.3 3.7 2.3 4.7 2.2 4 2.3-1.7 2.3-3 2.2-1.9 2.3-3.9 2.2-3 2.3 3.2 2.3-2.6 2.2-4.3 2.3-1.4 2.3-.4 2.2-.7 2.3-.8 2.3 9 2.2-4.3 2.3-5.1 2.2-3 2.3 2.4 2.3-7 2.2-4.5 2.3-.7 2.3-1.7 2.2-1.2 2.3-6.6 2.2-4.8 2.3-2.2 2.3-2.6 2.2-4.5 2.3-4.8 2.3.8 2.2-3.1 2.3-4.9 2.2-5 2.3-4.3 2.3-4.9 2.2-2.6 2.3-5.7 2.3-7.7 2.2-10.2 2.3-5 2.2-6.6 2.3-7.2 2.3.8 2.2-1 2.3-8.8 2.3-4.3 2.2-6 2.3-4.7 2.2 1.5 2.3 4.7 2.3 1.4 2.2-.9 2.3-6 2.3-6.3 2.2-2.1 2.3-5 2.2-6.3 2.3-1.5 2.3-2.6 2.2 1.8 2.3 4.1 2.3-1.1 2.2-.8 2.3-4.9 2.2-6.1 2.3-.3 2.3.1 2.2-2.9 2.3-4.4 2.3-1.2 2.2-4.9 2.3-12.9 2.3-7.6 2.2-9.2 2.3-9.3 2.2-8.2 2.3-4.7 2.3 5.9 2.2-15.9 2.3-10.1 2.3-2.7 2.2-3.4 2.3-1.1 2.2 2.8 2.3 1.6 2.3-3.4 2.2-6.7 2.3-2.3 2.3 14.5 2.2-17.4 2.3-.8" class="China-border"/><path id="border__Asia-__0028excl__002e-China-and-India__0029" fill="none" stroke="#496C3A" stroke-linecap="round" stroke-opacity=".7" stroke-width=".5" d="M82 531.2h45.3l2.2-.1h45.3l2.3-.1h15.8l2.3-.1h2.2l2.3-.1 2.2.2 2.3-.1h11.3l2.3-.1H231.4l2.2-.1H247.2l2.3-.1h4.5l2.2-.1h4.6l2.2-.2h2.3l2.3.1 2.2-.1h2.3l2.3-.1 2.2-.1h4.5l2.3-.1 2.3-.1h2.2l2.3-.1h2.3l2.2-.1 2.3-.2h2.2l2.3-.2h2.3l2.2-.1 2.3-.1 2.3-.1 2.2-.1 2.3-.1 2.2-.4 2.3-.1 2.3-.2h4.5l2.3-.2 2.2-.4 2.3-.2h2.2l2.3-.3 2.3-.3 2.2-.3 2.3-.2 2.3-.4 2.2-.1 2.3-.4 2.2-.1 2.3-.4 2.3-.7 2.2-.4 2.3.5 2.3-.6 2.2-.1 2.3-.2h2.2l2.3-.6 2.3-1.1 2.2-.4 2.3-.5 2.3-.7 2.2-.1 2.3-.1 2.3-.2 2.2-.6 2.3-1.3h2.2l2.3-1.2 2.3-.7 2.2-.1 2.3.2 2.3-.5 2.2-1 2.3-.6 2.2-.8 2.3-1 2.3-1.8 2.2-1.1 2.3-.7 2.3-.6 2.2-2.1 2.3-.3 2.2-1.7 2.3-1.2 2.3-4 2.2 1.3 2.3-1.3 2.3-1.6 2.2-.5 2.3-1.8 2.2-3.1 2.3 3.8 2.3.5 2.2-2.9 2.3-1.8 2.3.6 2.2 5.3 2.3-5.6 2.2 4.9 2.3-1.7 2.3-5 2.2-.1 2.3-.4 2.3.8 2.2-3.9 2.3.2 2.2-3.3 2.3 3.7 2.3 4.8 2.2 3.9 2.3-1.9 2.3-3.3 2.2-2 2.3-4.2 2.2-3.3 2.3 3.1 2.3-2.8 2.2-4.7 2.3-1.2 2.3.2 2.2-1 2.3-.8 2.3 9.8 2.2-4.4 2.3-5.7 2.2-3.2 2.3 2.8 2.3-6.9 2.2-4.9 2.3-.9 2.3-2 2.2-1.5 2.3-7.2 2.2-5.3 2.3-2.7 2.3-2.8 2.2-4.9 2.3-5.7h2.3l2.2-3.7 2.3-5.7 2.2-5.9 2.3-5.3 2.3-6 2.2-3.9 2.3-7.4 2.3-9.4 2.2-12.6 2.3-6.6 2.2-7.8 2.3-9.3 2.3.4 2.2-.9 2.3-10.8 2.3-5.5 2.2-6.4 2.3-6.1 2.2 1.4 2.3 5 2.3 1.3 2.2-1.6 2.3-7.4 2.3-7.3 2.2-3.2 2.3-5.6 2.2-9.2 2.3-3.1 2.3-4.2 2.2-5.5 2.3 7.8 2.3-2.5 2.2-2.4 2.3-5.1 2.2-7.6 2.3-1.1 2.3 1.4 2.2-5.3 2.3-7.5 2.3-1.9 2.2-6.3 2.3-15.5 2.3-10.1 2.2-10.6 2.3-11 2.2-9.4 2.3-6.1 2.3 5.8 2.2-20 2.3-12.6 2.3-5.8 2.2-3.3 2.3-2.6 2.2.6 2.3.3 2.3-5.8 2.2-8.1 2.3-3 2.3 18.3 2.2-20.2 2.3-2.2" class="Asia-__0028excl__002e-China-and-India__0029-border"/><path id="border__Oceania" fill="none" stroke="#9D774B" stroke-linecap="round" stroke-opacity=".7" stroke-width=".5" d="M82 531.2h45.3l2.2-.1h45.3l2.3-.1h15.8l2.3-.1h2.2l2.3-.1 2.2.2 2.3-.1h11.3l2.3-.1H231.4l2.2-.1H247.2l2.3-.1h4.5l2.2-.1h4.6l2.2-.2h2.3l2.3.1 2.2-.1h2.3l2.3-.1 2.2-.1h4.5l2.3-.1 2.3-.1h2.2l2.3-.1h2.3l2.2-.1 2.3-.2h2.2l2.3-.2h2.3l2.2-.1 2.3-.1 2.3-.1 2.2-.1 2.3-.1 2.2-.4 2.3-.1 2.3-.2h4.5l2.3-.2 2.2-.4 2.3-.2 2.2-.1 2.3-.2 2.3-.4 2.2-.2 2.3-.2 2.3-.4 2.2-.1 2.3-.4 2.2-.1 2.3-.4 2.3-.7 2.2-.4 2.3.5 2.3-.7 2.2-.1 2.3-.1 2.2-.1 2.3-.5 2.3-1.2 2.2-.3 2.3-.6 2.3-.6 2.2-.2 2.3-.1 2.3-.1 2.2-.6 2.3-1.3 2.2-.1 2.3-1.2 2.3-.7 2.2-.1 2.3.2 2.3-.5 2.2-1 2.3-.6 2.2-.8 2.3-1 2.3-1.8 2.2-1.1 2.3-.7 2.3-.6 2.2-2.2 2.3-.3 2.2-1.6 2.3-1.3 2.3-4 2.2 1.3 2.3-1.3 2.3-1.7 2.2-.5 2.3-1.8 2.2-3.1 2.3 3.8 2.3.5 2.2-2.9 2.3-1.8 2.3.6 2.2 5.3 2.3-5.6 2.2 4.9 2.3-1.7 2.3-5 2.2-.1 2.3-.5 2.3.8 2.2-3.9 2.3.2 2.2-3.3 2.3 3.8 2.3 4.8 2.2 3.9 2.3-1.9 2.3-3.3 2.2-2.1 2.3-4.2 2.2-3.3 2.3 3 2.3-2.8 2.2-4.6 2.3-1.3 2.3.1 2.2-.9 2.3-.9 2.3 9.9 2.2-4.5 2.3-5.7 2.2-3.2 2.3 2.8 2.3-7.1 2.2-4.9 2.3-.9 2.3-2 2.2-1.6 2.3-7.2 2.2-5.4 2.3-2.7 2.3-2.8 2.2-4.9 2.3-5.8 2.3-.1 2.2-3.6 2.3-5.8 2.2-6.1 2.3-5.4 2.3-6 2.2-4 2.3-7.4 2.3-9.6 2.2-12.7 2.3-6.6 2.2-7.8 2.3-9.6 2.3.4 2.2-.9 2.3-10.8 2.3-5.7 2.2-6.4 2.3-6.2 2.2 1.3 2.3 4.9 2.3 1.3 2.2-1.6 2.3-7.4 2.3-7.5 2.2-3.2 2.3-5.7 2.2-9.3 2.3-3.3 2.3-4.4 2.2-5.5 2.3 7.7 2.3-2.6 2.2-2.4 2.3-5.2 2.2-7.7 2.3-1.3 2.3 1.2 2.2-5.4 2.3-7.5 2.3-2.1 2.2-6.3 2.3-15.6 2.3-10.3 2.2-10.7 2.3-11 2.2-9.6 2.3-6 2.3 5.7 2.2-19.9 2.3-12.6 2.3-5.9 2.2-3.2 2.3-2.6 2.2.5 2.3.2 2.3-5.8 2.2-8.1 2.3-3.1 2.3 18.6 2.2-20.1 2.3-2.2" class="Oceania-border"/><path id="border__International-shipping" fill="none" stroke="#895952" stroke-linecap="round" stroke-opacity=".7" stroke-width=".5" d="M82 531.2h45.3l2.2-.1h45.3l2.3-.1h15.8l2.3-.1h2.2l2.3-.1 2.2.2 2.3-.1h11.3l2.3-.1H231.4l2.2-.1H247.2l2.3-.1h4.5l2.2-.1h4.6l2.2-.2h2.3l2.3.1 2.2-.1h2.3l2.3-.1 2.2-.1h4.5l2.3-.1 2.3-.1h2.2l2.3-.1h2.3l2.2-.1 2.3-.2h2.2l2.3-.2h2.3l2.2-.1 2.3-.1 2.3-.1 2.2-.1 2.3-.1 2.2-.4 2.3-.1 2.3-.2h4.5l2.3-.2 2.2-.4 2.3-.2 2.2-.1 2.3-.2 2.3-.4 2.2-.2 2.3-.2 2.3-.4 2.2-.1 2.3-.4 2.2-.1 2.3-.4 2.3-.7 2.2-.4 2.3.5 2.3-.7 2.2-.1 2.3-.1 2.2-.1 2.3-.5 2.3-1.2 2.2-.3 2.3-.6 2.3-.6 2.2-.2 2.3-.1 2.3-.1 2.2-.6 2.3-1.3 2.2-.1 2.3-1.2 2.3-.7 2.2-.1 2.3.2 2.3-.5 2.2-1 2.3-.6 2.2-.8 2.3-1 2.3-1.8 2.2-1.1 2.3-.7 2.3-.6 2.2-2.2 2.3-.3 2.2-1.6 2.3-1.3 2.3-4 2.2 1.3 2.3-1.3 2.3-1.7 2.2-.5 2.3-1.8 2.2-3.1 2.3 3.8 2.3.5 2.2-2.9 2.3-1.8 2.3.6 2.2 5.3 2.3-5.6 2.2 4.9 2.3-1.7 2.3-5 2.2-.1 2.3-.5 2.3.8 2.2-3.9 2.3.2 2.2-3.3 2.3 3.8 2.3 4.8 2.2 3.9 2.3-1.9 2.3-3.3 2.2-2.1 2.3-4.2 2.2-3.3 2.3 3 2.3-2.8 2.2-4.6 2.3-1.3 2.3.1 2.2-.9 2.3-.9 2.3 9.9 2.2-4.5 2.3-5.7 2.2-3.2 2.3 2.8 2.3-8.5 2.2-5.2 2.3-1 2.3-2 2.2-1.6 2.3-7.5 2.2-5.5 2.3-2.9 2.3-2.7 2.2-4.9 2.3-6.1 2.3-.3 2.2-3.7 2.3-5.9 2.2-6.4 2.3-5.5 2.3-6.2 2.2-4.2 2.3-7.5 2.3-9.8 2.2-12.8 2.3-6.8 2.2-8.1 2.3-9.9 2.3.8 2.2-.5 2.3-10.6 2.3-5.7 2.2-6.5 2.3-6.1 2.2 1.4 2.3 5.3 2.3 1.7 2.2-1.3 2.3-7.4 2.3-7.6 2.2-3.4 2.3-6.2 2.2-9.4 2.3-3.3 2.3-4.3 2.2-5.4 2.3 7.4 2.3-2.6 2.2-2.5 2.3-5.4 2.2-8.1 2.3-1.5 2.3 1 2.2-5.6 2.3-7.6 2.3-2 2.2-6.3 2.3-15.9 2.3-10.8 2.2-10.8 2.3-11.4 2.2-10.1 2.3-6.1 2.3 6.1 2.2-20.5 2.3-12.7 2.3-5.5 2.2-3.2 2.3-2.7 2.2.3 2.3.3 2.3-6.2 2.2-8 2.3-3 2.3 19.1 2.2-20.4 2.3-2.2" class="International-shipping-border"/><path id="border__International-aviation" fill="none" stroke="#753A58" stroke-linecap="round" stroke-opacity=".7" stroke-width=".5" d="M82 531.2h45.3l2.2-.1h45.3l2.3-.1h15.8l2.3-.1h2.2l2.3-.1 2.2.2 2.3-.1h11.3l2.3-.1H231.4l2.2-.1H247.2l2.3-.1h4.5l2.2-.1h4.6l2.2-.2h2.3l2.3.1 2.2-.1h2.3l2.3-.1 2.2-.1h4.5l2.3-.1 2.3-.1h2.2l2.3-.1h2.3l2.2-.1 2.3-.2h2.2l2.3-.2h2.3l2.2-.1 2.3-.1 2.3-.1 2.2-.1 2.3-.1 2.2-.4 2.3-.1 2.3-.2h4.5l2.3-.2 2.2-.4 2.3-.2 2.2-.1 2.3-.2 2.3-.4 2.2-.2 2.3-.2 2.3-.4 2.2-.1 2.3-.4 2.2-.1 2.3-.4 2.3-.7 2.2-.4 2.3.5 2.3-.7 2.2-.1 2.3-.1 2.2-.1 2.3-.5 2.3-1.2 2.2-.3 2.3-.6 2.3-.6 2.2-.2 2.3-.1 2.3-.1 2.2-.6 2.3-1.3 2.2-.1 2.3-1.2 2.3-.7 2.2-.1 2.3.2 2.3-.5 2.2-1 2.3-.6 2.2-.8 2.3-1 2.3-1.8 2.2-1.1 2.3-.7 2.3-.6 2.2-2.2 2.3-.3 2.2-1.6 2.3-1.3 2.3-4 2.2 1.3 2.3-1.3 2.3-1.7 2.2-.5 2.3-1.8 2.2-3.1 2.3 3.8 2.3.5 2.2-2.9 2.3-1.8 2.3.6 2.2 5.3 2.3-5.6 2.2 4.9 2.3-1.7 2.3-5 2.2-.1 2.3-.5 2.3.8 2.2-3.9 2.3.2 2.2-3.3 2.3 3.8 2.3 4.8 2.2 3.9 2.3-1.9 2.3-3.3 2.2-2.1 2.3-4.2 2.2-3.3 2.3 3 2.3-2.8 2.2-4.6 2.3-1.3 2.3.1 2.2-.9 2.3-.9 2.3 9.9 2.2-4.5 2.3-5.7 2.2-3.2 2.3 2.8 2.3-8.6 2.2-5.1 2.3-1 2.3-2.1 2.2-1.6 2.3-7.5 2.2-5.5 2.3-2.9 2.3-2.7 2.2-5 2.3-6 2.3-.4 2.2-3.8 2.3-5.9 2.2-6.4 2.3-5.5 2.3-6.3 2.2-4.3 2.3-7.6 2.3-9.8 2.2-13 2.3-6.9 2.2-8.2 2.3-9.9 2.3.8 2.2-.4 2.3-10.7 2.3-5.8 2.2-6.5 2.3-6.2 2.2 1.4 2.3 5.3 2.3 1.7 2.2-1.3 2.3-7.5 2.3-7.6 2.2-3.5 2.3-7.3 2.2-9.5 2.3-3.4 2.3-4.3 2.2-5.4 2.3 7.5 2.3-2.6 2.2-2.7 2.3-5.6 2.2-8.3 2.3-1.7 2.3.8 2.2-5.8 2.3-7.6 2.3-2 2.2-6.5 2.3-16 2.3-11.1 2.2-11.1 2.3-11.6 2.2-10.2 2.3-6.2 2.3 6.2 2.2-20.7 2.3-12.9 2.3-5.7 2.2-3.4 2.3-2.7 2.2.1h2.3l2.3-6.5 2.2-8.4 2.3-3.1 2.3 23.2 2.2-20.7 2.3-3.8" class="International-aviation-border"/></g></g></g></g><g id="footer" class="SourcesFooter" style="fill:#5b5b5b"><g id="sources" class="markdown-text-wrap"><text x="16" y="580.9" style="font-size:13.5px;line-height:1.2"><tspan x="16" y="580.9"><tspan style="font-weight:700">Data source:</tspan> Global Carbon Budget (2023)</tspan></text></g><text id="origin-url" x="440.7" y="580.9" font-size="13.5"><tspan x="440.74" y="580.89"><a href="https://ourworldindata.org/co2-and-greenhouse-gas-emissions" style="fill:#5b5b5b" target="_blank">OurWorldInData.org/co2-and-greenhouse-gas-emissions</a> | <a href="https://creativecommons.org/licenses/by/4.0/" style="fill:#5b5b5b" target="_blank">CC BY</a></tspan></text></g></svg>